<mxfile host="Electron" modified="2023-07-13T10:31:41.155Z" agent="Mozilla/5.0 (Macintosh; Intel Mac OS X 10_15_7) AppleWebKit/537.36 (KHTML, like Gecko) draw.io/21.6.1 Chrome/112.0.5615.204 Electron/24.6.1 Safari/537.36" etag="fwcemC4UN6kq6QLbhHO_" version="21.6.1" type="device" pages="5">
  <diagram id="I34TgiPMtmUHG_PpVXyV" name="Process Thoughts">
    <mxGraphModel dx="1013" dy="1927" grid="1" gridSize="10" guides="1" tooltips="1" connect="1" arrows="1" fold="1" page="1" pageScale="1" pageWidth="827" pageHeight="1169" math="0" shadow="0">
      <root>
        <mxCell id="0" />
        <mxCell id="1" parent="0" />
        <mxCell id="XACIt01tKU_jJg-1Fmn3-19" value="Pilots Box" style="rounded=1;whiteSpace=wrap;html=1;labelBackgroundColor=none;sketch=0;fontSize=22;fillColor=#f5f5f5;labelPosition=center;verticalLabelPosition=top;align=center;verticalAlign=bottom;strokeColor=#666666;gradientColor=#D6D6D6;gradientDirection=north;" parent="1" vertex="1">
          <mxGeometry x="315" y="-1130" width="196.5" height="220" as="geometry" />
        </mxCell>
        <mxCell id="XACIt01tKU_jJg-1Fmn3-1" value="Judges Tent" style="rounded=1;whiteSpace=wrap;html=1;sketch=0;labelPosition=center;verticalLabelPosition=top;align=center;verticalAlign=bottom;fontSize=22;fillColor=#fff2cc;strokeColor=#d6b656;labelBackgroundColor=none;gradientColor=#FFEE96;" parent="1" vertex="1">
          <mxGeometry x="30" y="-842" width="770" height="250" as="geometry" />
        </mxCell>
        <mxCell id="XACIt01tKU_jJg-1Fmn3-2" value="Pilot" style="sketch=0;aspect=fixed;html=1;points=[];align=center;image;fontSize=12;image=img/lib/mscae/Person.svg;labelPosition=center;verticalLabelPosition=top;verticalAlign=bottom;labelBackgroundColor=none;fontStyle=1" parent="1" vertex="1">
          <mxGeometry x="354" y="-1087" width="37" height="50" as="geometry" />
        </mxCell>
        <mxCell id="XACIt01tKU_jJg-1Fmn3-3" value="Caller" style="sketch=0;aspect=fixed;html=1;points=[];align=center;image;fontSize=12;image=img/lib/mscae/Person.svg;labelBackgroundColor=none;fontStyle=1" parent="1" vertex="1">
          <mxGeometry x="354" y="-1010" width="37" height="50" as="geometry" />
        </mxCell>
        <mxCell id="XACIt01tKU_jJg-1Fmn3-4" value="Judge 1" style="sketch=0;aspect=fixed;html=1;points=[];align=center;image;fontSize=12;image=img/lib/mscae/Person.svg;imageBackground=#FFCC99;labelBackgroundColor=none;labelPosition=center;verticalLabelPosition=top;verticalAlign=bottom;fontStyle=1" parent="1" vertex="1">
          <mxGeometry x="368" y="-808" width="37" height="50" as="geometry" />
        </mxCell>
        <mxCell id="XACIt01tKU_jJg-1Fmn3-5" value="Judge 2" style="sketch=0;aspect=fixed;html=1;points=[];align=center;image;fontSize=12;image=img/lib/mscae/Person.svg;imageBackground=#F2FF36;labelBackgroundColor=none;labelPosition=center;verticalLabelPosition=top;verticalAlign=bottom;fontStyle=1" parent="1" vertex="1">
          <mxGeometry x="440" y="-808" width="37" height="50" as="geometry" />
        </mxCell>
        <mxCell id="XACIt01tKU_jJg-1Fmn3-6" value="Judge N&lt;br&gt;" style="sketch=0;aspect=fixed;html=1;points=[];align=center;image;fontSize=12;image=img/lib/mscae/Person.svg;imageBackground=#F2FF36;labelBackgroundColor=none;labelPosition=center;verticalLabelPosition=top;verticalAlign=bottom;fontStyle=1" parent="1" vertex="1">
          <mxGeometry x="530" y="-808" width="37" height="50" as="geometry" />
        </mxCell>
        <mxCell id="XACIt01tKU_jJg-1Fmn3-7" value="" style="endArrow=none;dashed=1;html=1;dashPattern=1 3;strokeWidth=2;rounded=0;" parent="1" source="XACIt01tKU_jJg-1Fmn3-5" target="XACIt01tKU_jJg-1Fmn3-6" edge="1">
          <mxGeometry width="50" height="50" relative="1" as="geometry">
            <mxPoint x="525" y="-767" as="sourcePoint" />
            <mxPoint x="589" y="-767" as="targetPoint" />
          </mxGeometry>
        </mxCell>
        <mxCell id="XACIt01tKU_jJg-1Fmn3-8" value="Judge / Pilot&#xa;Comms" style="edgeStyle=elbowEdgeStyle;elbow=horizontal;strokeColor=#006666;strokeWidth=2;labelPosition=left;verticalLabelPosition=middle;align=right;verticalAlign=middle;spacingRight=5;labelBackgroundColor=none;fontColor=#007FFF;startArrow=classic;startFill=1;" parent="1" source="XACIt01tKU_jJg-1Fmn3-3" target="XACIt01tKU_jJg-1Fmn3-1" edge="1">
          <mxGeometry width="100" height="100" relative="1" as="geometry">
            <mxPoint x="293.5" y="-952" as="sourcePoint" />
            <mxPoint x="293.5" y="-1021" as="targetPoint" />
            <Array as="points">
              <mxPoint x="285" y="-921" />
              <mxPoint x="85" y="-911" />
              <mxPoint x="225" y="-961" />
            </Array>
          </mxGeometry>
        </mxCell>
        <mxCell id="XACIt01tKU_jJg-1Fmn3-9" value="Pilot / Caller&#xa;Comms" style="edgeStyle=elbowEdgeStyle;elbow=horizontal;strokeColor=#006666;strokeWidth=2;startArrow=classic;startFill=1;labelPosition=right;verticalLabelPosition=middle;align=left;verticalAlign=middle;spacingLeft=5;labelBackgroundColor=none;fontColor=#007FFF;" parent="1" source="XACIt01tKU_jJg-1Fmn3-3" target="XACIt01tKU_jJg-1Fmn3-2" edge="1">
          <mxGeometry width="100" height="100" relative="1" as="geometry">
            <mxPoint x="378" y="-958" as="sourcePoint" />
            <mxPoint x="455" y="-928" as="targetPoint" />
            <Array as="points">
              <mxPoint x="430" y="-1020" />
              <mxPoint x="430" y="-1017" />
            </Array>
          </mxGeometry>
        </mxCell>
        <mxCell id="XACIt01tKU_jJg-1Fmn3-10" value="&lt;font style=&quot;font-size: 12px;&quot;&gt;FlightLine Webapp&lt;/font&gt;" style="aspect=fixed;perimeter=ellipsePerimeter;html=1;align=center;shadow=0;dashed=0;spacingTop=3;image;image=img/lib/active_directory/database_server.svg;sketch=0;fontSize=22;fillColor=#FFFBEB;labelBackgroundColor=none;labelPosition=center;verticalLabelPosition=top;verticalAlign=bottom;fontStyle=1" parent="1" vertex="1">
          <mxGeometry x="313" y="-713" width="41" height="50" as="geometry" />
        </mxCell>
        <mxCell id="XACIt01tKU_jJg-1Fmn3-15" value="Flight line&lt;br&gt;Director" style="sketch=0;aspect=fixed;html=1;points=[];align=center;image;fontSize=12;image=img/lib/mscae/Person.svg;labelPosition=center;verticalLabelPosition=top;verticalAlign=bottom;labelBackgroundColor=none;fontStyle=1" parent="1" vertex="1">
          <mxGeometry x="170" y="-780" width="37" height="50" as="geometry" />
        </mxCell>
        <mxCell id="XACIt01tKU_jJg-1Fmn3-16" value="* Choose Round&#xa;* Set next pilot" style="edgeStyle=elbowEdgeStyle;elbow=horizontal;strokeColor=#990000;strokeWidth=2;labelPosition=right;verticalLabelPosition=middle;align=left;verticalAlign=middle;spacingRight=0;labelBackgroundColor=none;startArrow=classic;startFill=1;fontColor=#007FFF;spacing=6;" parent="1" source="XACIt01tKU_jJg-1Fmn3-15" target="XACIt01tKU_jJg-1Fmn3-10" edge="1">
          <mxGeometry x="-0.6364" width="100" height="100" relative="1" as="geometry">
            <mxPoint x="375" y="-898" as="sourcePoint" />
            <mxPoint x="312" y="-813" as="targetPoint" />
            <Array as="points">
              <mxPoint x="330" y="-640" />
              <mxPoint x="401" y="-660" />
              <mxPoint x="380" y="-640" />
              <mxPoint x="390" y="-674" />
              <mxPoint x="202" y="-688" />
              <mxPoint x="242" y="-718" />
              <mxPoint x="302" y="-748" />
              <mxPoint x="112" y="-833" />
              <mxPoint x="252" y="-883" />
            </Array>
            <mxPoint as="offset" />
          </mxGeometry>
        </mxCell>
        <mxCell id="XACIt01tKU_jJg-1Fmn3-26" value="Organise Pilots" style="edgeStyle=elbowEdgeStyle;elbow=horizontal;strokeColor=#006666;strokeWidth=2;labelPosition=left;verticalLabelPosition=middle;align=right;verticalAlign=middle;spacingRight=0;labelBackgroundColor=none;startArrow=classic;startFill=1;spacing=5;fontColor=#007FFF;" parent="1" source="XACIt01tKU_jJg-1Fmn3-22" target="XACIt01tKU_jJg-1Fmn3-15" edge="1">
          <mxGeometry x="-0.0385" width="100" height="100" relative="1" as="geometry">
            <mxPoint x="6" y="-502" as="sourcePoint" />
            <mxPoint x="51" y="-688" as="targetPoint" />
            <Array as="points">
              <mxPoint x="130" y="-680" />
              <mxPoint x="160" y="-680" />
              <mxPoint x="150" y="-680" />
              <mxPoint x="169" y="-688" />
              <mxPoint x="169" y="-620" />
              <mxPoint x="66" y="-582" />
              <mxPoint x="36" y="-582" />
              <mxPoint x="26" y="-617" />
              <mxPoint x="161" y="-703" />
              <mxPoint x="221" y="-733" />
              <mxPoint x="31" y="-818" />
              <mxPoint x="171" y="-868" />
            </Array>
            <mxPoint as="offset" />
          </mxGeometry>
        </mxCell>
        <mxCell id="XACIt01tKU_jJg-1Fmn3-31" value="" style="group" parent="1" vertex="1" connectable="0">
          <mxGeometry x="199" y="-565" width="70.19999999999999" height="56" as="geometry" />
        </mxCell>
        <mxCell id="XACIt01tKU_jJg-1Fmn3-24" value="" style="sketch=0;aspect=fixed;html=1;points=[];align=center;image;fontSize=12;image=img/lib/mscae/Person.svg;labelPosition=center;verticalLabelPosition=bottom;verticalAlign=top;labelBackgroundColor=none;" parent="XACIt01tKU_jJg-1Fmn3-31" vertex="1">
          <mxGeometry x="24" y="13" width="22.2" height="30" as="geometry" />
        </mxCell>
        <mxCell id="XACIt01tKU_jJg-1Fmn3-25" value="" style="sketch=0;aspect=fixed;html=1;points=[];align=center;image;fontSize=12;image=img/lib/mscae/Person.svg;labelPosition=center;verticalLabelPosition=bottom;verticalAlign=top;labelBackgroundColor=none;" parent="XACIt01tKU_jJg-1Fmn3-31" vertex="1">
          <mxGeometry x="48" y="26" width="22.2" height="30" as="geometry" />
        </mxCell>
        <mxCell id="XACIt01tKU_jJg-1Fmn3-22" value="Next Pilot(s)" style="sketch=0;aspect=fixed;html=1;points=[];align=center;image;fontSize=12;image=img/lib/mscae/Person.svg;labelPosition=center;verticalLabelPosition=top;verticalAlign=bottom;labelBackgroundColor=none;fontStyle=1" parent="XACIt01tKU_jJg-1Fmn3-31" vertex="1">
          <mxGeometry width="22.2" height="30" as="geometry" />
        </mxCell>
        <mxCell id="XACIt01tKU_jJg-1Fmn3-11" value="" style="edgeStyle=elbowEdgeStyle;elbow=horizontal;strokeColor=#990000;strokeWidth=2;startArrow=classic;startFill=1;" parent="1" source="XACIt01tKU_jJg-1Fmn3-5" target="XACIt01tKU_jJg-1Fmn3-10" edge="1">
          <mxGeometry width="100" height="100" relative="1" as="geometry">
            <mxPoint x="896" y="-808" as="sourcePoint" />
            <mxPoint x="756" y="-700.5" as="targetPoint" />
            <Array as="points">
              <mxPoint x="500" y="-740" />
              <mxPoint x="550" y="-730" />
              <mxPoint x="586" y="-733" />
            </Array>
          </mxGeometry>
        </mxCell>
        <mxCell id="XACIt01tKU_jJg-1Fmn3-12" value="" style="edgeStyle=elbowEdgeStyle;elbow=horizontal;strokeColor=#990000;strokeWidth=2;startArrow=classic;startFill=1;" parent="1" source="XACIt01tKU_jJg-1Fmn3-4" target="XACIt01tKU_jJg-1Fmn3-10" edge="1">
          <mxGeometry width="100" height="100" relative="1" as="geometry">
            <mxPoint x="906" y="-798" as="sourcePoint" />
            <mxPoint x="766" y="-690.5" as="targetPoint" />
            <Array as="points">
              <mxPoint x="430" y="-730" />
              <mxPoint x="470" y="-720" />
              <mxPoint x="510" y="-720" />
              <mxPoint x="507" y="-742" />
            </Array>
          </mxGeometry>
        </mxCell>
        <mxCell id="XACIt01tKU_jJg-1Fmn3-13" value="" style="edgeStyle=elbowEdgeStyle;elbow=horizontal;strokeColor=#990000;strokeWidth=2;startArrow=classic;startFill=1;" parent="1" source="XACIt01tKU_jJg-1Fmn3-6" target="XACIt01tKU_jJg-1Fmn3-10" edge="1">
          <mxGeometry width="100" height="100" relative="1" as="geometry">
            <mxPoint x="916" y="-788" as="sourcePoint" />
            <mxPoint x="776" y="-680.5" as="targetPoint" />
            <Array as="points">
              <mxPoint x="590" y="-740" />
              <mxPoint x="570" y="-730" />
              <mxPoint x="686" y="-733" />
              <mxPoint x="846" y="-680.5" />
            </Array>
          </mxGeometry>
        </mxCell>
        <mxCell id="XACIt01tKU_jJg-1Fmn3-32" value="Contest&lt;br&gt;Director" style="sketch=0;aspect=fixed;html=1;points=[];align=center;image;fontSize=12;image=img/lib/mscae/Person.svg;imageBackground=#FF3333;labelBackgroundColor=none;labelPosition=center;verticalLabelPosition=top;verticalAlign=bottom;fontStyle=1" parent="1" vertex="1">
          <mxGeometry x="541" y="-450" width="37" height="50" as="geometry" />
        </mxCell>
        <mxCell id="XACIt01tKU_jJg-1Fmn3-33" value="* Configure Flightline&#xa;* Download Scores" style="edgeStyle=elbowEdgeStyle;elbow=horizontal;strokeColor=#990000;strokeWidth=2;labelPosition=center;verticalLabelPosition=middle;align=left;verticalAlign=middle;spacingRight=5;labelBackgroundColor=none;startArrow=classic;startFill=1;fontColor=#007FFF;spacing=7;" parent="1" source="XACIt01tKU_jJg-1Fmn3-34" target="XACIt01tKU_jJg-1Fmn3-10" edge="1">
          <mxGeometry x="0.0778" width="100" height="100" relative="1" as="geometry">
            <mxPoint x="570" y="-494" as="sourcePoint" />
            <mxPoint x="460" y="-640" as="targetPoint" />
            <Array as="points">
              <mxPoint x="430" y="-640" />
              <mxPoint x="510" y="-590" />
              <mxPoint x="500" y="-520" />
              <mxPoint x="480" y="-525" />
              <mxPoint x="460" y="-554" />
              <mxPoint x="480" y="-634" />
              <mxPoint x="530" y="-624" />
              <mxPoint x="212" y="-728" />
              <mxPoint x="252" y="-758" />
              <mxPoint x="312" y="-788" />
              <mxPoint x="122" y="-873" />
              <mxPoint x="262" y="-923" />
            </Array>
            <mxPoint as="offset" />
          </mxGeometry>
        </mxCell>
        <mxCell id="XACIt01tKU_jJg-1Fmn3-34" value="&lt;font color=&quot;#000000&quot; style=&quot;font-size: 12px;&quot;&gt;Score PC&lt;/font&gt;" style="image;html=1;image=img/lib/clip_art/computers/Laptop_128x128.png;rounded=1;labelBackgroundColor=none;sketch=0;fontSize=22;fontColor=#007FFF;fillColor=#FFFBEB;labelPosition=center;verticalLabelPosition=top;align=center;verticalAlign=bottom;fontStyle=1" parent="1" vertex="1">
          <mxGeometry x="531.75" y="-565" width="55.5" height="55" as="geometry" />
        </mxCell>
        <mxCell id="XACIt01tKU_jJg-1Fmn3-35" value="* Configure Score!&#xa;* Generate Results" style="edgeStyle=elbowEdgeStyle;elbow=horizontal;strokeColor=#990000;strokeWidth=2;labelPosition=center;verticalLabelPosition=bottom;align=left;verticalAlign=top;spacingRight=0;labelBackgroundColor=none;startArrow=classic;startFill=1;fontColor=#007FFF;fontStyle=0;spacing=5;" parent="1" source="XACIt01tKU_jJg-1Fmn3-34" target="XACIt01tKU_jJg-1Fmn3-32" edge="1">
          <mxGeometry x="-0.2497" width="100" height="100" relative="1" as="geometry">
            <mxPoint x="347" y="-617" as="sourcePoint" />
            <mxPoint x="456.51590155468944" y="-617" as="targetPoint" />
            <Array as="points">
              <mxPoint x="620" y="-490" />
              <mxPoint x="700" y="-537" />
              <mxPoint x="710" y="-520" />
              <mxPoint x="720" y="-500" />
              <mxPoint x="620" y="-453" />
              <mxPoint x="212" y="-631" />
              <mxPoint x="252" y="-661" />
              <mxPoint x="312" y="-691" />
              <mxPoint x="122" y="-776" />
              <mxPoint x="262" y="-826" />
            </Array>
            <mxPoint as="offset" />
          </mxGeometry>
        </mxCell>
        <mxCell id="XACIt01tKU_jJg-1Fmn3-36" value="&lt;font style=&quot;font-size: 12px;&quot;&gt;IMAC Website&lt;/font&gt;" style="aspect=fixed;perimeter=ellipsePerimeter;html=1;align=center;shadow=0;dashed=0;spacingTop=3;image;image=img/lib/active_directory/database_server.svg;sketch=0;fontSize=22;fillColor=#FFFBEB;labelBackgroundColor=none;labelPosition=center;verticalLabelPosition=top;verticalAlign=bottom;fontStyle=1" parent="1" vertex="1">
          <mxGeometry x="348.2" y="-450" width="41" height="50" as="geometry" />
        </mxCell>
        <mxCell id="XACIt01tKU_jJg-1Fmn3-37" value="* Get Comp Details&#xa;* Upload Results" style="edgeStyle=elbowEdgeStyle;elbow=horizontal;strokeColor=#990000;strokeWidth=2;labelPosition=center;verticalLabelPosition=bottom;align=left;verticalAlign=top;spacingRight=5;labelBackgroundColor=none;startArrow=classic;startFill=1;fontColor=#007FFF;fontStyle=0" parent="1" source="XACIt01tKU_jJg-1Fmn3-32" target="XACIt01tKU_jJg-1Fmn3-36" edge="1">
          <mxGeometry x="0.6806" width="100" height="100" relative="1" as="geometry">
            <mxPoint x="471" y="-350" as="sourcePoint" />
            <mxPoint x="315" y="-281" as="targetPoint" />
            <Array as="points">
              <mxPoint x="470" y="-410" />
              <mxPoint x="470" y="-430" />
              <mxPoint x="441" y="-294" />
              <mxPoint x="33" y="-472" />
              <mxPoint x="73" y="-502" />
              <mxPoint x="133" y="-532" />
              <mxPoint x="-57" y="-617" />
              <mxPoint x="83" y="-667" />
            </Array>
            <mxPoint as="offset" />
          </mxGeometry>
        </mxCell>
        <mxCell id="XACIt01tKU_jJg-1Fmn3-38" value="" style="group" parent="1" vertex="1" connectable="0">
          <mxGeometry x="136" y="-450" width="70.19999999999999" height="56" as="geometry" />
        </mxCell>
        <mxCell id="XACIt01tKU_jJg-1Fmn3-39" value="" style="sketch=0;aspect=fixed;html=1;points=[];align=center;image;fontSize=12;image=img/lib/mscae/Person.svg;labelPosition=center;verticalLabelPosition=bottom;verticalAlign=top;labelBackgroundColor=none;" parent="XACIt01tKU_jJg-1Fmn3-38" vertex="1">
          <mxGeometry x="24" y="13" width="22.2" height="30" as="geometry" />
        </mxCell>
        <mxCell id="XACIt01tKU_jJg-1Fmn3-40" value="" style="sketch=0;aspect=fixed;html=1;points=[];align=center;image;fontSize=12;image=img/lib/mscae/Person.svg;labelPosition=center;verticalLabelPosition=bottom;verticalAlign=top;labelBackgroundColor=none;" parent="XACIt01tKU_jJg-1Fmn3-38" vertex="1">
          <mxGeometry x="48" y="26" width="22.2" height="30" as="geometry" />
        </mxCell>
        <mxCell id="XACIt01tKU_jJg-1Fmn3-41" value="Event Pilots" style="sketch=0;aspect=fixed;html=1;points=[];align=center;image;fontSize=12;image=img/lib/mscae/Person.svg;labelPosition=center;verticalLabelPosition=top;verticalAlign=bottom;labelBackgroundColor=none;fontStyle=1" parent="XACIt01tKU_jJg-1Fmn3-38" vertex="1">
          <mxGeometry width="22.2" height="30" as="geometry" />
        </mxCell>
        <mxCell id="XACIt01tKU_jJg-1Fmn3-42" value="* Register for event" style="edgeStyle=elbowEdgeStyle;elbow=horizontal;strokeColor=#990000;strokeWidth=2;labelPosition=center;verticalLabelPosition=bottom;align=center;verticalAlign=top;spacingRight=0;labelBackgroundColor=none;startArrow=classic;startFill=1;fontColor=#007FFF;fontStyle=0;spacing=2;" parent="1" source="XACIt01tKU_jJg-1Fmn3-36" target="XACIt01tKU_jJg-1Fmn3-40" edge="1">
          <mxGeometry x="-0.01" width="100" height="100" relative="1" as="geometry">
            <mxPoint x="327.8" y="-240" as="sourcePoint" />
            <mxPoint x="200.00000000000006" y="-240" as="targetPoint" />
            <Array as="points">
              <mxPoint x="300" y="-410" />
              <mxPoint x="230" y="-440" />
              <mxPoint x="280" y="-440" />
              <mxPoint x="230" y="-420" />
              <mxPoint x="311.8" y="-109" />
              <mxPoint x="-96.19999999999999" y="-287" />
              <mxPoint x="-56.19999999999999" y="-317" />
              <mxPoint x="3.8000000000000114" y="-347" />
              <mxPoint x="-186.2" y="-432" />
              <mxPoint x="-46.19999999999999" y="-482" />
            </Array>
            <mxPoint as="offset" />
          </mxGeometry>
        </mxCell>
        <mxCell id="XACIt01tKU_jJg-1Fmn3-43" value="Web Comms" style="edgeStyle=elbowEdgeStyle;elbow=horizontal;strokeColor=#990000;strokeWidth=2;startArrow=classic;startFill=1;" parent="1" edge="1">
          <mxGeometry width="100" height="100" relative="1" as="geometry">
            <mxPoint x="621.5" y="-900" as="sourcePoint" />
            <mxPoint x="771.5" y="-900" as="targetPoint" />
            <Array as="points">
              <mxPoint x="737.5" y="-573" />
              <mxPoint x="897.5" y="-520.5" />
            </Array>
          </mxGeometry>
        </mxCell>
        <mxCell id="XACIt01tKU_jJg-1Fmn3-44" value="Human Comms" style="edgeStyle=elbowEdgeStyle;elbow=horizontal;strokeColor=#006666;strokeWidth=2;startArrow=classic;startFill=1;" parent="1" edge="1">
          <mxGeometry width="100" height="100" relative="1" as="geometry">
            <mxPoint x="621.5" y="-870" as="sourcePoint" />
            <mxPoint x="771.5" y="-870" as="targetPoint" />
            <Array as="points">
              <mxPoint x="737.5" y="-543" />
              <mxPoint x="897.5" y="-490.5" />
            </Array>
          </mxGeometry>
        </mxCell>
        <mxCell id="XACIt01tKU_jJg-1Fmn3-46" value="&lt;b&gt;From Judges to FlightLine:&lt;br&gt;&lt;/b&gt;&lt;ul&gt;&lt;li&gt;Enter Scores&lt;/li&gt;&lt;/ul&gt;" style="text;html=1;align=left;verticalAlign=middle;resizable=0;points=[];autosize=1;strokeColor=none;fillColor=none;fontSize=11;fontColor=#007FFF;" parent="1" vertex="1">
          <mxGeometry x="598.5" y="-800" width="170" height="60" as="geometry" />
        </mxCell>
        <mxCell id="XACIt01tKU_jJg-1Fmn3-47" value="&lt;b&gt;From FlightLine To Judges:&lt;br&gt;&lt;/b&gt;&lt;ul&gt;&lt;li&gt;&lt;span style=&quot;background-color: initial;&quot;&gt;Current Round&lt;/span&gt;&lt;/li&gt;&lt;li&gt;&lt;span style=&quot;background-color: initial;&quot;&gt;Current Pilot&lt;/span&gt;&lt;br&gt;&lt;/li&gt;&lt;/ul&gt;" style="text;html=1;align=left;verticalAlign=middle;resizable=0;points=[];autosize=1;strokeColor=none;fillColor=none;fontSize=11;fontColor=#007FFF;" parent="1" vertex="1">
          <mxGeometry x="600" y="-751" width="170" height="80" as="geometry" />
        </mxCell>
        <mxCell id="XACIt01tKU_jJg-1Fmn3-49" value="&lt;b&gt;Use Cases&lt;/b&gt;" style="text;html=1;align=center;verticalAlign=middle;resizable=0;points=[];autosize=1;strokeColor=none;fillColor=none;fontSize=11;fontColor=#007FFF;" parent="1" vertex="1">
          <mxGeometry x="10" y="-385" width="80" height="30" as="geometry" />
        </mxCell>
        <mxCell id="XACIt01tKU_jJg-1Fmn3-52" value="" style="rounded=0;whiteSpace=wrap;html=1;labelBackgroundColor=#E6E6E6;sketch=0;fontSize=11;fillColor=#d5e8d4;strokeColor=#82b366;glass=0;shadow=0;" parent="1" vertex="1">
          <mxGeometry x="30" y="-360" width="300" height="120" as="geometry" />
        </mxCell>
        <mxCell id="XACIt01tKU_jJg-1Fmn3-53" value="&lt;h1&gt;&lt;font style=&quot;line-height: 1;&quot;&gt;&lt;span style=&quot;font-size: 14px;&quot;&gt;Judge:&lt;br&gt;&lt;ul&gt;&lt;li&gt;&lt;font style=&quot;font-size: 10px; font-weight: normal;&quot;&gt;Enter scores&lt;/font&gt;&lt;/li&gt;&lt;li&gt;&lt;font style=&quot;font-size: 10px; font-weight: normal;&quot;&gt;Select previous flight from current round.&lt;/font&gt;&lt;/li&gt;&lt;li&gt;&lt;font style=&quot;font-size: 10px; font-weight: normal;&quot;&gt;Edit previous scores&lt;/font&gt;&lt;/li&gt;&lt;/ul&gt;&lt;/span&gt;&lt;/font&gt;&lt;/h1&gt;&lt;p&gt;&lt;/p&gt;" style="text;html=1;strokeColor=none;fillColor=none;spacing=5;spacingTop=-20;whiteSpace=wrap;overflow=hidden;rounded=0;labelBackgroundColor=none;sketch=0;fontSize=11;fontColor=#007FFF;" parent="1" vertex="1">
          <mxGeometry x="29" y="-350" width="300" height="100" as="geometry" />
        </mxCell>
      </root>
    </mxGraphModel>
  </diagram>
  <diagram id="oBdPKLEkVHqwH0rIi9k-" name="Root Page">
    <mxGraphModel dx="1013" dy="758" grid="1" gridSize="10" guides="1" tooltips="1" connect="1" arrows="1" fold="1" page="1" pageScale="1" pageWidth="827" pageHeight="1169" math="0" shadow="0">
      <root>
        <mxCell id="0" />
        <mxCell id="1" parent="0" />
        <mxCell id="yNEF3S6-vgaT_ILTQb61-15" value="&lt;b&gt;Is there &lt;br&gt;a comp?&lt;/b&gt;" style="rhombus;whiteSpace=wrap;html=1;rounded=0;shadow=0;glass=0;labelBackgroundColor=none;sketch=0;fontSize=10;fontColor=#000000;fillColor=#FFFBEB;gradientColor=#FFEE96;gradientDirection=north;" vertex="1" parent="1">
          <mxGeometry x="365" y="120" width="70" height="70" as="geometry" />
        </mxCell>
        <mxCell id="yNEF3S6-vgaT_ILTQb61-16" value="" style="edgeStyle=none;noEdgeStyle=1;strokeColor=#990000;strokeWidth=2;exitX=0.5;exitY=1;exitDx=0;exitDy=0;entryX=0.5;entryY=0;entryDx=0;entryDy=0;" edge="1" parent="1" source="yNEF3S6-vgaT_ILTQb61-11" target="yNEF3S6-vgaT_ILTQb61-15">
          <mxGeometry width="100" height="100" relative="1" as="geometry">
            <mxPoint x="430" y="130" as="sourcePoint" />
            <mxPoint x="430" y="160" as="targetPoint" />
          </mxGeometry>
        </mxCell>
        <mxCell id="yNEF3S6-vgaT_ILTQb61-19" value="" style="edgeStyle=elbowEdgeStyle;elbow=horizontal;strokeColor=#990000;strokeWidth=2;exitX=0.5;exitY=1;exitDx=0;exitDy=0;entryX=0.5;entryY=0;entryDx=0;entryDy=0;" edge="1" parent="1" source="yNEF3S6-vgaT_ILTQb61-15" target="yNEF3S6-vgaT_ILTQb61-43">
          <mxGeometry width="100" height="100" relative="1" as="geometry">
            <mxPoint x="430" y="380" as="sourcePoint" />
            <mxPoint x="400" y="240" as="targetPoint" />
          </mxGeometry>
        </mxCell>
        <mxCell id="yNEF3S6-vgaT_ILTQb61-20" value="Yes" style="edgeLabel;html=1;align=center;verticalAlign=middle;resizable=0;points=[];fontSize=10;fontColor=#000000;" vertex="1" connectable="0" parent="yNEF3S6-vgaT_ILTQb61-19">
          <mxGeometry x="-0.1193" y="-1" relative="1" as="geometry">
            <mxPoint as="offset" />
          </mxGeometry>
        </mxCell>
        <mxCell id="yNEF3S6-vgaT_ILTQb61-11" value="Root Page" style="rounded=1;whiteSpace=wrap;html=1;shadow=0;glass=0;labelBackgroundColor=none;sketch=0;fontSize=15;fillColor=#dae8fc;gradientDirection=north;strokeColor=#6c8ebf;fontStyle=1" vertex="1" parent="1">
          <mxGeometry x="330" y="50" width="140" height="40" as="geometry" />
        </mxCell>
        <mxCell id="yNEF3S6-vgaT_ILTQb61-32" value="Go to New Comp page" style="rounded=1;whiteSpace=wrap;html=1;shadow=0;glass=0;labelBackgroundColor=none;sketch=0;fontSize=10;fillColor=#cdeb8b;gradientDirection=north;strokeColor=#36393d;fontStyle=1" vertex="1" parent="1">
          <mxGeometry x="500" y="140" width="120" height="30" as="geometry" />
        </mxCell>
        <mxCell id="yNEF3S6-vgaT_ILTQb61-39" value="" style="edgeStyle=elbowEdgeStyle;elbow=horizontal;strokeColor=#990000;strokeWidth=2;exitX=1;exitY=0.5;exitDx=0;exitDy=0;" edge="1" parent="1" source="yNEF3S6-vgaT_ILTQb61-15" target="yNEF3S6-vgaT_ILTQb61-32">
          <mxGeometry width="100" height="100" relative="1" as="geometry">
            <mxPoint x="460" y="140" as="sourcePoint" />
            <mxPoint x="595" y="195" as="targetPoint" />
          </mxGeometry>
        </mxCell>
        <mxCell id="yNEF3S6-vgaT_ILTQb61-41" value="&amp;nbsp;No&amp;nbsp;" style="edgeLabel;html=1;align=center;verticalAlign=middle;resizable=0;points=[];" vertex="1" connectable="0" parent="yNEF3S6-vgaT_ILTQb61-39">
          <mxGeometry x="-0.435" y="-1" relative="1" as="geometry">
            <mxPoint as="offset" />
          </mxGeometry>
        </mxCell>
        <mxCell id="yNEF3S6-vgaT_ILTQb61-43" value="&lt;b&gt;Score Mode?&lt;/b&gt;" style="rhombus;whiteSpace=wrap;html=1;rounded=0;shadow=0;glass=0;labelBackgroundColor=none;sketch=0;fontSize=10;fontColor=#000000;fillColor=#FFFBEB;gradientColor=#FFEE96;gradientDirection=north;" vertex="1" parent="1">
          <mxGeometry x="350" y="230" width="100" height="100" as="geometry" />
        </mxCell>
        <mxCell id="yNEF3S6-vgaT_ILTQb61-44" value="" style="edgeStyle=elbowEdgeStyle;elbow=horizontal;strokeColor=#990000;strokeWidth=2;exitX=0.5;exitY=1;exitDx=0;exitDy=0;" edge="1" parent="1" source="yNEF3S6-vgaT_ILTQb61-43" target="yNEF3S6-vgaT_ILTQb61-52">
          <mxGeometry width="100" height="100" relative="1" as="geometry">
            <mxPoint x="399.55" y="330" as="sourcePoint" />
            <mxPoint x="610" y="390" as="targetPoint" />
            <Array as="points">
              <mxPoint x="510" y="390" />
              <mxPoint x="619.55" y="240" />
              <mxPoint x="500" y="390" />
              <mxPoint x="560" y="390" />
              <mxPoint x="589.55" y="220" />
              <mxPoint x="439.55" y="350" />
              <mxPoint x="639.55" y="310" />
              <mxPoint x="609.55" y="325" />
            </Array>
          </mxGeometry>
        </mxCell>
        <mxCell id="yNEF3S6-vgaT_ILTQb61-49" value="flightline" style="edgeLabel;html=1;align=center;verticalAlign=middle;resizable=0;points=[];" vertex="1" connectable="0" parent="yNEF3S6-vgaT_ILTQb61-44">
          <mxGeometry x="-0.2701" y="1" relative="1" as="geometry">
            <mxPoint as="offset" />
          </mxGeometry>
        </mxCell>
        <mxCell id="yNEF3S6-vgaT_ILTQb61-45" value="" style="edgeStyle=elbowEdgeStyle;elbow=horizontal;strokeColor=#990000;strokeWidth=2;exitX=1;exitY=0.5;exitDx=0;exitDy=0;" edge="1" parent="1" source="yNEF3S6-vgaT_ILTQb61-43" target="yNEF3S6-vgaT_ILTQb61-52">
          <mxGeometry width="100" height="100" relative="1" as="geometry">
            <mxPoint x="480.45" y="280" as="sourcePoint" />
            <mxPoint x="560" y="280" as="targetPoint" />
          </mxGeometry>
        </mxCell>
        <mxCell id="yNEF3S6-vgaT_ILTQb61-47" value="byRound" style="edgeLabel;html=1;align=center;verticalAlign=middle;resizable=0;points=[];" vertex="1" connectable="0" parent="yNEF3S6-vgaT_ILTQb61-45">
          <mxGeometry x="0.1868" y="2" relative="1" as="geometry">
            <mxPoint as="offset" />
          </mxGeometry>
        </mxCell>
        <mxCell id="yNEF3S6-vgaT_ILTQb61-46" value="" style="edgeStyle=elbowEdgeStyle;elbow=horizontal;strokeColor=#990000;strokeWidth=2;exitX=0;exitY=0.5;exitDx=0;exitDy=0;" edge="1" parent="1" source="yNEF3S6-vgaT_ILTQb61-43" target="yNEF3S6-vgaT_ILTQb61-50">
          <mxGeometry width="100" height="100" relative="1" as="geometry">
            <mxPoint x="310" y="250" as="sourcePoint" />
            <mxPoint x="240" y="250" as="targetPoint" />
          </mxGeometry>
        </mxCell>
        <mxCell id="yNEF3S6-vgaT_ILTQb61-48" value="global" style="edgeLabel;html=1;align=center;verticalAlign=middle;resizable=0;points=[];" vertex="1" connectable="0" parent="yNEF3S6-vgaT_ILTQb61-46">
          <mxGeometry x="0.2033" y="-1" relative="1" as="geometry">
            <mxPoint as="offset" />
          </mxGeometry>
        </mxCell>
        <mxCell id="yNEF3S6-vgaT_ILTQb61-50" value="Go to &lt;br&gt;&quot;Pilot Global&quot;&lt;br&gt;page" style="rounded=1;whiteSpace=wrap;html=1;shadow=0;glass=0;labelBackgroundColor=none;sketch=0;fontSize=10;fillColor=#cdeb8b;gradientDirection=north;strokeColor=#36393d;fontStyle=1" vertex="1" parent="1">
          <mxGeometry x="140" y="255" width="100" height="50" as="geometry" />
        </mxCell>
        <mxCell id="yNEF3S6-vgaT_ILTQb61-52" value="Go to &lt;br&gt;&quot;Pilot Round&quot;&lt;br&gt;page" style="rounded=1;whiteSpace=wrap;html=1;shadow=0;glass=0;labelBackgroundColor=none;sketch=0;fontSize=10;fillColor=#cdeb8b;gradientDirection=north;strokeColor=#36393d;fontStyle=1" vertex="1" parent="1">
          <mxGeometry x="560" y="255" width="120" height="50" as="geometry" />
        </mxCell>
      </root>
    </mxGraphModel>
  </diagram>
  <diagram id="omgPy0el0x66QL9610aZ" name="Pilot Global Page">
    <mxGraphModel dx="1114" dy="834" grid="1" gridSize="10" guides="1" tooltips="1" connect="1" arrows="1" fold="1" page="1" pageScale="1" pageWidth="827" pageHeight="1169" math="0" shadow="0">
      <root>
        <mxCell id="0" />
        <mxCell id="1" parent="0" />
        <mxCell id="3_VbOh4A37aK9SCf4Ccv-1" value="&lt;b&gt;Is there &lt;br&gt;a comp?&lt;/b&gt;" style="rhombus;whiteSpace=wrap;html=1;rounded=0;shadow=0;glass=0;labelBackgroundColor=none;sketch=0;fontSize=10;fontColor=#000000;fillColor=#FFFBEB;gradientColor=#FFEE96;gradientDirection=north;" vertex="1" parent="1">
          <mxGeometry x="365" y="230" width="70" height="70" as="geometry" />
        </mxCell>
        <mxCell id="3_VbOh4A37aK9SCf4Ccv-2" value="" style="edgeStyle=none;noEdgeStyle=1;strokeColor=#990000;strokeWidth=2;exitX=0.5;exitY=1;exitDx=0;exitDy=0;entryX=0.5;entryY=0;entryDx=0;entryDy=0;" edge="1" parent="1" source="3_VbOh4A37aK9SCf4Ccv-5" target="3_VbOh4A37aK9SCf4Ccv-1">
          <mxGeometry width="100" height="100" relative="1" as="geometry">
            <mxPoint x="430" y="240" as="sourcePoint" />
            <mxPoint x="430" y="270" as="targetPoint" />
          </mxGeometry>
        </mxCell>
        <mxCell id="3_VbOh4A37aK9SCf4Ccv-3" value="" style="edgeStyle=elbowEdgeStyle;elbow=horizontal;strokeColor=#990000;strokeWidth=2;exitX=0.5;exitY=1;exitDx=0;exitDy=0;" edge="1" parent="1" source="3_VbOh4A37aK9SCf4Ccv-1" target="omG3Kfk-vyVRdicQErzu-2">
          <mxGeometry width="100" height="100" relative="1" as="geometry">
            <mxPoint x="430" y="490" as="sourcePoint" />
            <mxPoint x="400" y="350" as="targetPoint" />
          </mxGeometry>
        </mxCell>
        <mxCell id="3_VbOh4A37aK9SCf4Ccv-4" value="Yes" style="edgeLabel;html=1;align=center;verticalAlign=middle;resizable=0;points=[];fontSize=10;fontColor=#000000;" vertex="1" connectable="0" parent="3_VbOh4A37aK9SCf4Ccv-3">
          <mxGeometry x="-0.1193" y="-1" relative="1" as="geometry">
            <mxPoint as="offset" />
          </mxGeometry>
        </mxCell>
        <mxCell id="3_VbOh4A37aK9SCf4Ccv-5" value="Pilot Global Page&lt;br&gt;&lt;hr&gt;&lt;span style=&quot;font-weight: normal;&quot;&gt;/pilot-list-global&lt;/span&gt;" style="rounded=1;whiteSpace=wrap;html=1;shadow=0;glass=0;labelBackgroundColor=none;sketch=0;fontSize=15;fillColor=#dae8fc;gradientDirection=north;strokeColor=#6c8ebf;fontStyle=1" vertex="1" parent="1">
          <mxGeometry x="310" y="130" width="180" height="70" as="geometry" />
        </mxCell>
        <mxCell id="3_VbOh4A37aK9SCf4Ccv-6" value="Go to Root page" style="rounded=1;whiteSpace=wrap;html=1;shadow=0;glass=0;labelBackgroundColor=none;sketch=0;fontSize=10;fillColor=#cdeb8b;gradientDirection=north;strokeColor=#36393d;fontStyle=1" vertex="1" parent="1">
          <mxGeometry x="500" y="250" width="120" height="30" as="geometry" />
        </mxCell>
        <mxCell id="3_VbOh4A37aK9SCf4Ccv-7" value="" style="edgeStyle=elbowEdgeStyle;elbow=horizontal;strokeColor=#990000;strokeWidth=2;exitX=1;exitY=0.5;exitDx=0;exitDy=0;" edge="1" parent="1" source="3_VbOh4A37aK9SCf4Ccv-1" target="3_VbOh4A37aK9SCf4Ccv-6">
          <mxGeometry width="100" height="100" relative="1" as="geometry">
            <mxPoint x="460" y="250" as="sourcePoint" />
            <mxPoint x="595" y="305" as="targetPoint" />
          </mxGeometry>
        </mxCell>
        <mxCell id="3_VbOh4A37aK9SCf4Ccv-8" value="&amp;nbsp;No&amp;nbsp;" style="edgeLabel;html=1;align=center;verticalAlign=middle;resizable=0;points=[];" vertex="1" connectable="0" parent="3_VbOh4A37aK9SCf4Ccv-7">
          <mxGeometry x="-0.435" y="-1" relative="1" as="geometry">
            <mxPoint as="offset" />
          </mxGeometry>
        </mxCell>
        <mxCell id="3_VbOh4A37aK9SCf4Ccv-16" value="To be finished" style="rounded=1;whiteSpace=wrap;html=1;shadow=0;glass=0;labelBackgroundColor=none;sketch=0;fontSize=10;fillColor=#cdeb8b;gradientDirection=north;strokeColor=#36393d;fontStyle=1" vertex="1" parent="1">
          <mxGeometry x="120" y="50" width="100" height="50" as="geometry" />
        </mxCell>
        <mxCell id="omG3Kfk-vyVRdicQErzu-1" value="Other Input:&lt;br&gt;&lt;span style=&quot;font-weight: normal;&quot;&gt;Home, Sync, Comp, Settings etc...&lt;/span&gt;" style="rounded=1;whiteSpace=wrap;html=1;shadow=0;glass=0;labelBackgroundColor=none;sketch=0;fontSize=10;fillColor=#cdeb8b;gradientDirection=north;strokeColor=#36393d;fontStyle=1" vertex="1" parent="1">
          <mxGeometry x="640" y="570" width="100" height="50" as="geometry" />
        </mxCell>
        <mxCell id="omG3Kfk-vyVRdicQErzu-2" value="&lt;b style=&quot;font-size: 10px;&quot;&gt;Load Pilots&lt;br&gt;Load Scores&lt;br style=&quot;font-size: 10px;&quot;&gt;&lt;/b&gt;" style="shape=parallelogram;html=1;strokeWidth=2;perimeter=parallelogramPerimeter;whiteSpace=wrap;rounded=1;arcSize=12;size=0.23;fillColor=#FFCCFF;align=center;fontSize=10;" vertex="1" parent="1">
          <mxGeometry x="340" y="400" width="120" height="60" as="geometry" />
        </mxCell>
        <mxCell id="omG3Kfk-vyVRdicQErzu-3" value="Wait For Input" style="strokeWidth=2;html=1;shape=mxgraph.flowchart.delay;whiteSpace=wrap;fillColor=#CDEB8B;fontStyle=1;fontSize=10;" vertex="1" parent="1">
          <mxGeometry x="130" y="565" width="100" height="60" as="geometry" />
        </mxCell>
        <mxCell id="omG3Kfk-vyVRdicQErzu-4" value="" style="edgeStyle=elbowEdgeStyle;elbow=horizontal;strokeColor=#990000;strokeWidth=2;" edge="1" parent="1" source="omG3Kfk-vyVRdicQErzu-6" target="omG3Kfk-vyVRdicQErzu-3">
          <mxGeometry width="100" height="100" relative="1" as="geometry">
            <mxPoint x="305" y="575" as="sourcePoint" />
            <mxPoint x="375" y="575" as="targetPoint" />
          </mxGeometry>
        </mxCell>
        <mxCell id="omG3Kfk-vyVRdicQErzu-5" value="&lt;b&gt;Next?&lt;/b&gt;" style="rhombus;whiteSpace=wrap;html=1;rounded=0;shadow=0;glass=0;labelBackgroundColor=none;sketch=0;fontSize=10;fontColor=#000000;fillColor=#FFFBEB;gradientColor=#FFEE96;gradientDirection=north;" vertex="1" parent="1">
          <mxGeometry x="285" y="560" width="70" height="70" as="geometry" />
        </mxCell>
        <mxCell id="omG3Kfk-vyVRdicQErzu-6" value="Display Pilot" style="rounded=1;whiteSpace=wrap;html=1;absoluteArcSize=1;arcSize=14;strokeWidth=2;fillColor=#FFCCFF;fontStyle=1;fontSize=10;" vertex="1" parent="1">
          <mxGeometry x="130" y="480" width="100" height="50" as="geometry" />
        </mxCell>
        <mxCell id="omG3Kfk-vyVRdicQErzu-7" value="" style="edgeStyle=elbowEdgeStyle;elbow=horizontal;strokeColor=#990000;strokeWidth=2;exitX=0;exitY=0.5;exitDx=0;exitDy=0;entryX=0.5;entryY=0;entryDx=0;entryDy=0;exitPerimeter=0;" edge="1" parent="1" source="omG3Kfk-vyVRdicQErzu-29" target="omG3Kfk-vyVRdicQErzu-6">
          <mxGeometry width="100" height="100" relative="1" as="geometry">
            <mxPoint x="339.54999999999995" y="437.5" as="sourcePoint" />
            <mxPoint x="220" y="465" as="targetPoint" />
            <Array as="points">
              <mxPoint x="180" y="438" />
            </Array>
          </mxGeometry>
        </mxCell>
        <mxCell id="omG3Kfk-vyVRdicQErzu-8" value="Select Next&lt;br&gt;Pilot" style="rounded=1;whiteSpace=wrap;html=1;absoluteArcSize=1;arcSize=14;strokeWidth=2;fillColor=#FFCCFF;fontStyle=1;fontSize=10;" vertex="1" parent="1">
          <mxGeometry x="280" y="680" width="80" height="50" as="geometry" />
        </mxCell>
        <mxCell id="omG3Kfk-vyVRdicQErzu-9" value="" style="edgeStyle=elbowEdgeStyle;elbow=horizontal;strokeColor=#990000;strokeWidth=2;" edge="1" parent="1" source="omG3Kfk-vyVRdicQErzu-3" target="omG3Kfk-vyVRdicQErzu-5">
          <mxGeometry width="100" height="100" relative="1" as="geometry">
            <mxPoint x="180" y="630" as="sourcePoint" />
            <mxPoint x="180" y="660" as="targetPoint" />
            <Array as="points" />
          </mxGeometry>
        </mxCell>
        <mxCell id="omG3Kfk-vyVRdicQErzu-10" value="" style="edgeStyle=elbowEdgeStyle;elbow=horizontal;strokeColor=#990000;strokeWidth=2;" edge="1" parent="1" source="omG3Kfk-vyVRdicQErzu-5" target="omG3Kfk-vyVRdicQErzu-8">
          <mxGeometry width="100" height="100" relative="1" as="geometry">
            <mxPoint x="335" y="460" as="sourcePoint" />
            <mxPoint x="335" y="490" as="targetPoint" />
            <Array as="points" />
          </mxGeometry>
        </mxCell>
        <mxCell id="omG3Kfk-vyVRdicQErzu-11" value="Yes" style="edgeLabel;html=1;align=center;verticalAlign=middle;resizable=0;points=[];" vertex="1" connectable="0" parent="omG3Kfk-vyVRdicQErzu-10">
          <mxGeometry x="-0.2299" y="2" relative="1" as="geometry">
            <mxPoint as="offset" />
          </mxGeometry>
        </mxCell>
        <mxCell id="omG3Kfk-vyVRdicQErzu-12" value="" style="edgeStyle=elbowEdgeStyle;elbow=horizontal;strokeColor=#990000;strokeWidth=2;entryX=0;entryY=0.5;entryDx=0;entryDy=0;endArrow=none;endFill=0;" edge="1" parent="1" source="omG3Kfk-vyVRdicQErzu-8" target="omG3Kfk-vyVRdicQErzu-6">
          <mxGeometry width="100" height="100" relative="1" as="geometry">
            <mxPoint x="29.99586206896558" y="750" as="sourcePoint" />
            <mxPoint x="29.99586206896558" y="530" as="targetPoint" />
            <Array as="points">
              <mxPoint x="80" y="620" />
            </Array>
          </mxGeometry>
        </mxCell>
        <mxCell id="omG3Kfk-vyVRdicQErzu-13" value="" style="edgeStyle=elbowEdgeStyle;elbow=horizontal;strokeColor=#990000;strokeWidth=2;" edge="1" parent="1" source="omG3Kfk-vyVRdicQErzu-5" target="omG3Kfk-vyVRdicQErzu-15">
          <mxGeometry width="100" height="100" relative="1" as="geometry">
            <mxPoint x="395" y="600" as="sourcePoint" />
            <mxPoint x="395" y="650" as="targetPoint" />
            <Array as="points">
              <mxPoint x="395" y="595" />
            </Array>
          </mxGeometry>
        </mxCell>
        <mxCell id="omG3Kfk-vyVRdicQErzu-14" value="&amp;nbsp;No&amp;nbsp;" style="edgeLabel;html=1;align=center;verticalAlign=middle;resizable=0;points=[];" vertex="1" connectable="0" parent="omG3Kfk-vyVRdicQErzu-13">
          <mxGeometry x="-0.2299" y="2" relative="1" as="geometry">
            <mxPoint as="offset" />
          </mxGeometry>
        </mxCell>
        <mxCell id="omG3Kfk-vyVRdicQErzu-15" value="&lt;b&gt;Previous?&lt;/b&gt;" style="rhombus;whiteSpace=wrap;html=1;rounded=0;shadow=0;glass=0;labelBackgroundColor=none;sketch=0;fontSize=10;fontColor=#000000;fillColor=#FFFBEB;gradientColor=#FFEE96;gradientDirection=north;" vertex="1" parent="1">
          <mxGeometry x="405" y="560" width="70" height="70" as="geometry" />
        </mxCell>
        <mxCell id="omG3Kfk-vyVRdicQErzu-16" value="" style="edgeStyle=orthogonalEdgeStyle;rounded=1;orthogonalLoop=1;jettySize=auto;html=1;strokeWidth=2;strokeColor=#990000;endArrow=none;endFill=0;" edge="1" parent="1" source="omG3Kfk-vyVRdicQErzu-17">
          <mxGeometry relative="1" as="geometry">
            <mxPoint x="80" y="705" as="targetPoint" />
            <Array as="points">
              <mxPoint x="440" y="760" />
              <mxPoint x="80" y="760" />
            </Array>
          </mxGeometry>
        </mxCell>
        <mxCell id="omG3Kfk-vyVRdicQErzu-17" value="Select Previous&lt;br&gt;Pilot" style="rounded=1;whiteSpace=wrap;html=1;absoluteArcSize=1;arcSize=14;strokeWidth=2;fillColor=#FFCCFF;fontStyle=1;fontSize=10;" vertex="1" parent="1">
          <mxGeometry x="390" y="680" width="100" height="50" as="geometry" />
        </mxCell>
        <mxCell id="omG3Kfk-vyVRdicQErzu-18" value="" style="edgeStyle=elbowEdgeStyle;elbow=horizontal;strokeColor=#990000;strokeWidth=2;" edge="1" parent="1" source="omG3Kfk-vyVRdicQErzu-15" target="omG3Kfk-vyVRdicQErzu-17">
          <mxGeometry width="100" height="100" relative="1" as="geometry">
            <mxPoint x="515" y="620" as="sourcePoint" />
            <mxPoint x="515" y="670" as="targetPoint" />
            <Array as="points" />
          </mxGeometry>
        </mxCell>
        <mxCell id="omG3Kfk-vyVRdicQErzu-19" value="Yes" style="edgeLabel;html=1;align=center;verticalAlign=middle;resizable=0;points=[];" vertex="1" connectable="0" parent="omG3Kfk-vyVRdicQErzu-18">
          <mxGeometry x="-0.2299" y="2" relative="1" as="geometry">
            <mxPoint as="offset" />
          </mxGeometry>
        </mxCell>
        <mxCell id="omG3Kfk-vyVRdicQErzu-20" value="" style="edgeStyle=orthogonalEdgeStyle;rounded=1;orthogonalLoop=1;jettySize=auto;html=1;strokeWidth=2;strokeColor=#990000;endArrow=classic;endFill=1;exitX=0.083;exitY=0.69;exitDx=0;exitDy=0;exitPerimeter=0;entryX=0;entryY=0.5;entryDx=0;entryDy=0;" edge="1" parent="1" target="omG3Kfk-vyVRdicQErzu-6">
          <mxGeometry relative="1" as="geometry">
            <mxPoint x="80" y="705" as="sourcePoint" />
            <mxPoint x="30" y="510" as="targetPoint" />
            <Array as="points">
              <mxPoint x="80" y="505" />
            </Array>
          </mxGeometry>
        </mxCell>
        <mxCell id="omG3Kfk-vyVRdicQErzu-21" value="&lt;b&gt;Select?&lt;/b&gt;" style="rhombus;whiteSpace=wrap;html=1;rounded=0;shadow=0;glass=0;labelBackgroundColor=none;sketch=0;fontSize=10;fontColor=#000000;fillColor=#FFFBEB;gradientColor=#FFEE96;gradientDirection=north;" vertex="1" parent="1">
          <mxGeometry x="525" y="560" width="70" height="70" as="geometry" />
        </mxCell>
        <mxCell id="omG3Kfk-vyVRdicQErzu-22" value="" style="edgeStyle=elbowEdgeStyle;elbow=horizontal;strokeColor=#990000;strokeWidth=2;" edge="1" parent="1" source="omG3Kfk-vyVRdicQErzu-15" target="omG3Kfk-vyVRdicQErzu-21">
          <mxGeometry width="100" height="100" relative="1" as="geometry">
            <mxPoint x="475" y="570" as="sourcePoint" />
            <mxPoint x="525" y="570" as="targetPoint" />
            <Array as="points">
              <mxPoint x="515" y="595" />
            </Array>
          </mxGeometry>
        </mxCell>
        <mxCell id="omG3Kfk-vyVRdicQErzu-23" value="&amp;nbsp;No&amp;nbsp;" style="edgeLabel;html=1;align=center;verticalAlign=middle;resizable=0;points=[];" vertex="1" connectable="0" parent="omG3Kfk-vyVRdicQErzu-22">
          <mxGeometry x="-0.2299" y="2" relative="1" as="geometry">
            <mxPoint as="offset" />
          </mxGeometry>
        </mxCell>
        <mxCell id="omG3Kfk-vyVRdicQErzu-24" value="" style="edgeStyle=elbowEdgeStyle;elbow=horizontal;strokeColor=#990000;strokeWidth=2;" edge="1" parent="1" source="omG3Kfk-vyVRdicQErzu-21" target="omG3Kfk-vyVRdicQErzu-26">
          <mxGeometry width="100" height="100" relative="1" as="geometry">
            <mxPoint x="559.66" y="665" as="sourcePoint" />
            <mxPoint x="625" y="670" as="targetPoint" />
            <Array as="points">
              <mxPoint x="560" y="650" />
            </Array>
          </mxGeometry>
        </mxCell>
        <mxCell id="omG3Kfk-vyVRdicQErzu-25" value="Yes" style="edgeLabel;html=1;align=center;verticalAlign=middle;resizable=0;points=[];" vertex="1" connectable="0" parent="omG3Kfk-vyVRdicQErzu-24">
          <mxGeometry x="-0.2299" y="2" relative="1" as="geometry">
            <mxPoint as="offset" />
          </mxGeometry>
        </mxCell>
        <mxCell id="omG3Kfk-vyVRdicQErzu-26" value="Go to Judge page" style="rounded=1;whiteSpace=wrap;html=1;shadow=0;glass=0;labelBackgroundColor=none;sketch=0;fontSize=10;fillColor=#cdeb8b;gradientDirection=north;strokeColor=#36393d;fontStyle=1" vertex="1" parent="1">
          <mxGeometry x="510" y="680" width="100" height="50" as="geometry" />
        </mxCell>
        <mxCell id="omG3Kfk-vyVRdicQErzu-27" value="" style="edgeStyle=elbowEdgeStyle;elbow=horizontal;strokeColor=#990000;strokeWidth=2;" edge="1" parent="1" source="omG3Kfk-vyVRdicQErzu-21" target="omG3Kfk-vyVRdicQErzu-1">
          <mxGeometry width="100" height="100" relative="1" as="geometry">
            <mxPoint x="595" y="594.66" as="sourcePoint" />
            <mxPoint x="645" y="594.66" as="targetPoint" />
            <Array as="points">
              <mxPoint x="635" y="594.66" />
            </Array>
          </mxGeometry>
        </mxCell>
        <mxCell id="omG3Kfk-vyVRdicQErzu-28" value="&amp;nbsp;No&amp;nbsp;" style="edgeLabel;html=1;align=center;verticalAlign=middle;resizable=0;points=[];" vertex="1" connectable="0" parent="omG3Kfk-vyVRdicQErzu-27">
          <mxGeometry x="-0.2299" y="2" relative="1" as="geometry">
            <mxPoint as="offset" />
          </mxGeometry>
        </mxCell>
        <mxCell id="omG3Kfk-vyVRdicQErzu-29" value="Pilot List" style="strokeWidth=2;html=1;shape=mxgraph.flowchart.sequential_data;whiteSpace=wrap;fillColor=#647687;fontStyle=1;strokeColor=#314354;fontColor=#ffffff;" vertex="1" parent="1">
          <mxGeometry x="210" y="390" width="60" height="60" as="geometry" />
        </mxCell>
        <mxCell id="omG3Kfk-vyVRdicQErzu-30" value="" style="edgeStyle=none;orthogonalLoop=1;jettySize=auto;html=1;rounded=1;entryX=1;entryY=0.5;entryDx=0;entryDy=0;entryPerimeter=0;exitX=0;exitY=0.25;exitDx=0;exitDy=0;strokeWidth=2;strokeColor=#990000;" edge="1" parent="1" source="omG3Kfk-vyVRdicQErzu-2" target="omG3Kfk-vyVRdicQErzu-29">
          <mxGeometry width="80" relative="1" as="geometry">
            <mxPoint x="270" y="350" as="sourcePoint" />
            <mxPoint x="340" y="330" as="targetPoint" />
            <Array as="points" />
          </mxGeometry>
        </mxCell>
      </root>
    </mxGraphModel>
  </diagram>
  <diagram name="Pilot Round Page" id="azzhmJTvFZyR7hgSmTDl">
    <mxGraphModel dx="1238" dy="927" grid="1" gridSize="10" guides="1" tooltips="1" connect="1" arrows="1" fold="1" page="1" pageScale="1" pageWidth="827" pageHeight="1169" math="0" shadow="0">
      <root>
        <mxCell id="ZQq9O-YeE_ZEWJ72eeBV-0" />
        <mxCell id="ZQq9O-YeE_ZEWJ72eeBV-1" parent="ZQq9O-YeE_ZEWJ72eeBV-0" />
        <mxCell id="ZQq9O-YeE_ZEWJ72eeBV-2" value="&lt;b&gt;Is there &lt;br&gt;a comp?&lt;/b&gt;" style="rhombus;whiteSpace=wrap;html=1;rounded=0;shadow=0;glass=0;labelBackgroundColor=none;sketch=0;fontSize=10;fontColor=#000000;fillColor=#FFFBEB;gradientColor=#FFEE96;gradientDirection=north;" vertex="1" parent="ZQq9O-YeE_ZEWJ72eeBV-1">
          <mxGeometry x="365" y="230" width="70" height="70" as="geometry" />
        </mxCell>
        <mxCell id="ZQq9O-YeE_ZEWJ72eeBV-3" value="" style="edgeStyle=none;noEdgeStyle=1;strokeColor=#990000;strokeWidth=2;exitX=0.5;exitY=1;exitDx=0;exitDy=0;entryX=0.5;entryY=0;entryDx=0;entryDy=0;" edge="1" parent="ZQq9O-YeE_ZEWJ72eeBV-1" source="ZQq9O-YeE_ZEWJ72eeBV-6" target="ZQq9O-YeE_ZEWJ72eeBV-2">
          <mxGeometry width="100" height="100" relative="1" as="geometry">
            <mxPoint x="430" y="240" as="sourcePoint" />
            <mxPoint x="430" y="270" as="targetPoint" />
          </mxGeometry>
        </mxCell>
        <mxCell id="ZQq9O-YeE_ZEWJ72eeBV-4" value="" style="edgeStyle=elbowEdgeStyle;elbow=horizontal;strokeColor=#990000;strokeWidth=2;exitX=0.5;exitY=1;exitDx=0;exitDy=0;entryX=0.5;entryY=0;entryDx=0;entryDy=0;" edge="1" parent="ZQq9O-YeE_ZEWJ72eeBV-1" source="ZQq9O-YeE_ZEWJ72eeBV-2" target="ViPK4aO7A15Pc71pLkyV-0">
          <mxGeometry width="100" height="100" relative="1" as="geometry">
            <mxPoint x="430" y="490" as="sourcePoint" />
            <mxPoint x="400" y="350" as="targetPoint" />
          </mxGeometry>
        </mxCell>
        <mxCell id="ZQq9O-YeE_ZEWJ72eeBV-5" value="Yes" style="edgeLabel;html=1;align=center;verticalAlign=middle;resizable=0;points=[];fontSize=10;fontColor=#000000;" vertex="1" connectable="0" parent="ZQq9O-YeE_ZEWJ72eeBV-4">
          <mxGeometry x="-0.1193" y="-1" relative="1" as="geometry">
            <mxPoint as="offset" />
          </mxGeometry>
        </mxCell>
        <mxCell id="ZQq9O-YeE_ZEWJ72eeBV-6" value="Pilot Round Page&lt;hr&gt;&lt;span style=&quot;font-weight: normal;&quot;&gt;/pilot-list-round&lt;/span&gt;" style="rounded=1;whiteSpace=wrap;html=1;shadow=0;glass=0;labelBackgroundColor=none;sketch=0;fontSize=15;fillColor=#dae8fc;gradientDirection=north;strokeColor=#6c8ebf;fontStyle=1" vertex="1" parent="ZQq9O-YeE_ZEWJ72eeBV-1">
          <mxGeometry x="310" y="130" width="180" height="70" as="geometry" />
        </mxCell>
        <mxCell id="ZQq9O-YeE_ZEWJ72eeBV-7" value="Go to Root page" style="rounded=1;whiteSpace=wrap;html=1;shadow=0;glass=0;labelBackgroundColor=none;sketch=0;fontSize=10;fillColor=#cdeb8b;gradientDirection=north;strokeColor=#36393d;fontStyle=1" vertex="1" parent="ZQq9O-YeE_ZEWJ72eeBV-1">
          <mxGeometry x="500" y="250" width="120" height="30" as="geometry" />
        </mxCell>
        <mxCell id="ZQq9O-YeE_ZEWJ72eeBV-8" value="" style="edgeStyle=elbowEdgeStyle;elbow=horizontal;strokeColor=#990000;strokeWidth=2;exitX=1;exitY=0.5;exitDx=0;exitDy=0;" edge="1" parent="ZQq9O-YeE_ZEWJ72eeBV-1" source="ZQq9O-YeE_ZEWJ72eeBV-2" target="ZQq9O-YeE_ZEWJ72eeBV-7">
          <mxGeometry width="100" height="100" relative="1" as="geometry">
            <mxPoint x="460" y="250" as="sourcePoint" />
            <mxPoint x="595" y="305" as="targetPoint" />
          </mxGeometry>
        </mxCell>
        <mxCell id="ZQq9O-YeE_ZEWJ72eeBV-9" value="&amp;nbsp;No&amp;nbsp;" style="edgeLabel;html=1;align=center;verticalAlign=middle;resizable=0;points=[];" vertex="1" connectable="0" parent="ZQq9O-YeE_ZEWJ72eeBV-8">
          <mxGeometry x="-0.435" y="-1" relative="1" as="geometry">
            <mxPoint x="7" y="-1" as="offset" />
          </mxGeometry>
        </mxCell>
        <mxCell id="ZQq9O-YeE_ZEWJ72eeBV-10" value="Other Input:&lt;br&gt;&lt;span style=&quot;font-weight: normal;&quot;&gt;Home, Sync, Comp, Settings etc...&lt;/span&gt;" style="rounded=1;whiteSpace=wrap;html=1;shadow=0;glass=0;labelBackgroundColor=none;sketch=0;fontSize=10;fillColor=#cdeb8b;gradientDirection=north;strokeColor=#36393d;fontStyle=1" vertex="1" parent="ZQq9O-YeE_ZEWJ72eeBV-1">
          <mxGeometry x="640" y="820" width="100" height="50" as="geometry" />
        </mxCell>
        <mxCell id="ZQq9O-YeE_ZEWJ72eeBV-11" value="&lt;b style=&quot;font-size: 10px;&quot;&gt;Load Filtered Pilots&lt;br style=&quot;font-size: 10px;&quot;&gt;Load Scores&lt;br style=&quot;font-size: 10px;&quot;&gt;Select First Pilot&lt;br style=&quot;font-size: 10px;&quot;&gt;&lt;/b&gt;" style="shape=parallelogram;html=1;strokeWidth=2;perimeter=parallelogramPerimeter;whiteSpace=wrap;rounded=1;arcSize=12;size=0.23;fillColor=#FFCCFF;align=center;fontSize=10;" vertex="1" parent="ZQq9O-YeE_ZEWJ72eeBV-1">
          <mxGeometry x="310" y="640" width="180" height="90" as="geometry" />
        </mxCell>
        <mxCell id="ViPK4aO7A15Pc71pLkyV-0" value="&lt;b style=&quot;font-size: 10px;&quot;&gt;Is there an &lt;br style=&quot;font-size: 10px;&quot;&gt;Active Round?&lt;/b&gt;" style="rhombus;whiteSpace=wrap;html=1;rounded=0;shadow=0;glass=0;labelBackgroundColor=none;sketch=0;fontSize=10;fontColor=#000000;fillColor=#FFFBEB;gradientColor=#FFEE96;gradientDirection=north;" vertex="1" parent="ZQq9O-YeE_ZEWJ72eeBV-1">
          <mxGeometry x="350" y="350" width="100" height="100" as="geometry" />
        </mxCell>
        <mxCell id="ViPK4aO7A15Pc71pLkyV-1" value="" style="edgeStyle=elbowEdgeStyle;elbow=horizontal;strokeColor=#990000;strokeWidth=2;exitX=1;exitY=0.5;exitDx=0;exitDy=0;" edge="1" parent="ZQq9O-YeE_ZEWJ72eeBV-1" source="ViPK4aO7A15Pc71pLkyV-0" target="ViPK4aO7A15Pc71pLkyV-3">
          <mxGeometry width="100" height="100" relative="1" as="geometry">
            <mxPoint x="490" y="400" as="sourcePoint" />
            <mxPoint x="555" y="400" as="targetPoint" />
          </mxGeometry>
        </mxCell>
        <mxCell id="ViPK4aO7A15Pc71pLkyV-2" value="&amp;nbsp;No&amp;nbsp;" style="edgeLabel;html=1;align=center;verticalAlign=middle;resizable=0;points=[];" vertex="1" connectable="0" parent="ViPK4aO7A15Pc71pLkyV-1">
          <mxGeometry x="-0.435" y="-1" relative="1" as="geometry">
            <mxPoint x="10" y="-1" as="offset" />
          </mxGeometry>
        </mxCell>
        <mxCell id="ViPK4aO7A15Pc71pLkyV-3" value="Go to Rounds page&lt;hr&gt;&lt;span style=&quot;font-weight: normal;&quot;&gt;Round is selected or created depending on scoring mode.&lt;br&gt;Flow will return to this page&lt;br&gt;&lt;/span&gt;" style="rounded=1;whiteSpace=wrap;html=1;shadow=0;glass=0;labelBackgroundColor=none;sketch=0;fontSize=10;fillColor=#cdeb8b;gradientDirection=north;strokeColor=#36393d;fontStyle=1" vertex="1" parent="ZQq9O-YeE_ZEWJ72eeBV-1">
          <mxGeometry x="520" y="345" width="120" height="110" as="geometry" />
        </mxCell>
        <mxCell id="ViPK4aO7A15Pc71pLkyV-4" value="" style="edgeStyle=elbowEdgeStyle;elbow=horizontal;strokeColor=#990000;strokeWidth=2;exitX=0.5;exitY=1;exitDx=0;exitDy=0;entryX=0.5;entryY=0;entryDx=0;entryDy=0;entryPerimeter=0;" edge="1" parent="ZQq9O-YeE_ZEWJ72eeBV-1" source="ViPK4aO7A15Pc71pLkyV-0" target="z0PlqGzmoasyXMZHz6hP-24">
          <mxGeometry width="100" height="100" relative="1" as="geometry">
            <mxPoint x="399.5" y="480" as="sourcePoint" />
            <mxPoint x="400" y="500" as="targetPoint" />
          </mxGeometry>
        </mxCell>
        <mxCell id="ViPK4aO7A15Pc71pLkyV-5" value="Yes" style="edgeLabel;html=1;align=center;verticalAlign=middle;resizable=0;points=[];fontSize=10;fontColor=#000000;" vertex="1" connectable="0" parent="ViPK4aO7A15Pc71pLkyV-4">
          <mxGeometry x="-0.1193" y="-1" relative="1" as="geometry">
            <mxPoint as="offset" />
          </mxGeometry>
        </mxCell>
        <mxCell id="ViPK4aO7A15Pc71pLkyV-6" value="Wait For Input" style="strokeWidth=2;html=1;shape=mxgraph.flowchart.delay;whiteSpace=wrap;fillColor=#CDEB8B;fontStyle=1;fontSize=10;" vertex="1" parent="ZQq9O-YeE_ZEWJ72eeBV-1">
          <mxGeometry x="130" y="815" width="100" height="60" as="geometry" />
        </mxCell>
        <mxCell id="ViPK4aO7A15Pc71pLkyV-7" value="" style="edgeStyle=elbowEdgeStyle;elbow=horizontal;strokeColor=#990000;strokeWidth=2;" edge="1" parent="ZQq9O-YeE_ZEWJ72eeBV-1" source="ViPK4aO7A15Pc71pLkyV-11" target="ViPK4aO7A15Pc71pLkyV-6">
          <mxGeometry width="100" height="100" relative="1" as="geometry">
            <mxPoint x="305" y="825" as="sourcePoint" />
            <mxPoint x="375" y="825" as="targetPoint" />
          </mxGeometry>
        </mxCell>
        <mxCell id="ViPK4aO7A15Pc71pLkyV-9" value="&lt;b&gt;Next?&lt;/b&gt;" style="rhombus;whiteSpace=wrap;html=1;rounded=0;shadow=0;glass=0;labelBackgroundColor=none;sketch=0;fontSize=10;fontColor=#000000;fillColor=#FFFBEB;gradientColor=#FFEE96;gradientDirection=north;" vertex="1" parent="ZQq9O-YeE_ZEWJ72eeBV-1">
          <mxGeometry x="285" y="810" width="70" height="70" as="geometry" />
        </mxCell>
        <mxCell id="ViPK4aO7A15Pc71pLkyV-11" value="Display Pilot" style="rounded=1;whiteSpace=wrap;html=1;absoluteArcSize=1;arcSize=14;strokeWidth=2;fillColor=#FFCCFF;fontStyle=1;fontSize=10;" vertex="1" parent="ZQq9O-YeE_ZEWJ72eeBV-1">
          <mxGeometry x="130" y="730" width="100" height="50" as="geometry" />
        </mxCell>
        <mxCell id="ViPK4aO7A15Pc71pLkyV-12" value="" style="edgeStyle=elbowEdgeStyle;elbow=horizontal;strokeColor=#990000;strokeWidth=2;exitX=0;exitY=0.5;exitDx=0;exitDy=0;entryX=0.5;entryY=0;entryDx=0;entryDy=0;exitPerimeter=0;" edge="1" parent="ZQq9O-YeE_ZEWJ72eeBV-1" source="z0PlqGzmoasyXMZHz6hP-22" target="ViPK4aO7A15Pc71pLkyV-11">
          <mxGeometry width="100" height="100" relative="1" as="geometry">
            <mxPoint x="339.54999999999995" y="687.5" as="sourcePoint" />
            <mxPoint x="220" y="715" as="targetPoint" />
            <Array as="points">
              <mxPoint x="180" y="688" />
            </Array>
          </mxGeometry>
        </mxCell>
        <mxCell id="ViPK4aO7A15Pc71pLkyV-13" value="Select Next&lt;br&gt;Pilot" style="rounded=1;whiteSpace=wrap;html=1;absoluteArcSize=1;arcSize=14;strokeWidth=2;fillColor=#FFCCFF;fontStyle=1;fontSize=10;" vertex="1" parent="ZQq9O-YeE_ZEWJ72eeBV-1">
          <mxGeometry x="280" y="930" width="80" height="50" as="geometry" />
        </mxCell>
        <mxCell id="ViPK4aO7A15Pc71pLkyV-14" value="" style="edgeStyle=elbowEdgeStyle;elbow=horizontal;strokeColor=#990000;strokeWidth=2;" edge="1" parent="ZQq9O-YeE_ZEWJ72eeBV-1" source="ViPK4aO7A15Pc71pLkyV-6" target="ViPK4aO7A15Pc71pLkyV-9">
          <mxGeometry width="100" height="100" relative="1" as="geometry">
            <mxPoint x="180" y="880" as="sourcePoint" />
            <mxPoint x="180" y="910" as="targetPoint" />
            <Array as="points" />
          </mxGeometry>
        </mxCell>
        <mxCell id="ViPK4aO7A15Pc71pLkyV-15" value="" style="edgeStyle=elbowEdgeStyle;elbow=horizontal;strokeColor=#990000;strokeWidth=2;" edge="1" parent="ZQq9O-YeE_ZEWJ72eeBV-1" source="ViPK4aO7A15Pc71pLkyV-9" target="ViPK4aO7A15Pc71pLkyV-13">
          <mxGeometry width="100" height="100" relative="1" as="geometry">
            <mxPoint x="335" y="710" as="sourcePoint" />
            <mxPoint x="335" y="740" as="targetPoint" />
            <Array as="points" />
          </mxGeometry>
        </mxCell>
        <mxCell id="ViPK4aO7A15Pc71pLkyV-17" value="Yes" style="edgeLabel;html=1;align=center;verticalAlign=middle;resizable=0;points=[];" vertex="1" connectable="0" parent="ViPK4aO7A15Pc71pLkyV-15">
          <mxGeometry x="-0.2299" y="2" relative="1" as="geometry">
            <mxPoint as="offset" />
          </mxGeometry>
        </mxCell>
        <mxCell id="ViPK4aO7A15Pc71pLkyV-16" value="" style="edgeStyle=elbowEdgeStyle;elbow=horizontal;strokeColor=#990000;strokeWidth=2;entryX=0;entryY=0.5;entryDx=0;entryDy=0;endArrow=none;endFill=0;" edge="1" parent="ZQq9O-YeE_ZEWJ72eeBV-1" source="ViPK4aO7A15Pc71pLkyV-13" target="ViPK4aO7A15Pc71pLkyV-11">
          <mxGeometry width="100" height="100" relative="1" as="geometry">
            <mxPoint x="29.99586206896558" y="1000" as="sourcePoint" />
            <mxPoint x="29.99586206896558" y="780" as="targetPoint" />
            <Array as="points">
              <mxPoint x="80" y="870" />
            </Array>
          </mxGeometry>
        </mxCell>
        <mxCell id="ViPK4aO7A15Pc71pLkyV-18" value="" style="edgeStyle=elbowEdgeStyle;elbow=horizontal;strokeColor=#990000;strokeWidth=2;" edge="1" parent="ZQq9O-YeE_ZEWJ72eeBV-1" source="ViPK4aO7A15Pc71pLkyV-9" target="ViPK4aO7A15Pc71pLkyV-20">
          <mxGeometry width="100" height="100" relative="1" as="geometry">
            <mxPoint x="395" y="850" as="sourcePoint" />
            <mxPoint x="395" y="900" as="targetPoint" />
            <Array as="points">
              <mxPoint x="395" y="845" />
            </Array>
          </mxGeometry>
        </mxCell>
        <mxCell id="ViPK4aO7A15Pc71pLkyV-19" value="&amp;nbsp;No&amp;nbsp;" style="edgeLabel;html=1;align=center;verticalAlign=middle;resizable=0;points=[];" vertex="1" connectable="0" parent="ViPK4aO7A15Pc71pLkyV-18">
          <mxGeometry x="-0.2299" y="2" relative="1" as="geometry">
            <mxPoint as="offset" />
          </mxGeometry>
        </mxCell>
        <mxCell id="ViPK4aO7A15Pc71pLkyV-20" value="&lt;b&gt;Previous?&lt;/b&gt;" style="rhombus;whiteSpace=wrap;html=1;rounded=0;shadow=0;glass=0;labelBackgroundColor=none;sketch=0;fontSize=10;fontColor=#000000;fillColor=#FFFBEB;gradientColor=#FFEE96;gradientDirection=north;" vertex="1" parent="ZQq9O-YeE_ZEWJ72eeBV-1">
          <mxGeometry x="405" y="810" width="70" height="70" as="geometry" />
        </mxCell>
        <mxCell id="z0PlqGzmoasyXMZHz6hP-10" value="" style="edgeStyle=orthogonalEdgeStyle;rounded=1;orthogonalLoop=1;jettySize=auto;html=1;strokeWidth=2;strokeColor=#990000;endArrow=none;endFill=0;" edge="1" parent="ZQq9O-YeE_ZEWJ72eeBV-1" source="ViPK4aO7A15Pc71pLkyV-21">
          <mxGeometry relative="1" as="geometry">
            <mxPoint x="80" y="955" as="targetPoint" />
            <Array as="points">
              <mxPoint x="440" y="1010" />
              <mxPoint x="80" y="1010" />
            </Array>
          </mxGeometry>
        </mxCell>
        <mxCell id="ViPK4aO7A15Pc71pLkyV-21" value="Select Previous&lt;br&gt;Pilot" style="rounded=1;whiteSpace=wrap;html=1;absoluteArcSize=1;arcSize=14;strokeWidth=2;fillColor=#FFCCFF;fontStyle=1;fontSize=10;" vertex="1" parent="ZQq9O-YeE_ZEWJ72eeBV-1">
          <mxGeometry x="390" y="930" width="100" height="50" as="geometry" />
        </mxCell>
        <mxCell id="z0PlqGzmoasyXMZHz6hP-0" value="" style="edgeStyle=elbowEdgeStyle;elbow=horizontal;strokeColor=#990000;strokeWidth=2;" edge="1" parent="ZQq9O-YeE_ZEWJ72eeBV-1" source="ViPK4aO7A15Pc71pLkyV-20" target="ViPK4aO7A15Pc71pLkyV-21">
          <mxGeometry width="100" height="100" relative="1" as="geometry">
            <mxPoint x="515" y="870" as="sourcePoint" />
            <mxPoint x="515" y="920" as="targetPoint" />
            <Array as="points" />
          </mxGeometry>
        </mxCell>
        <mxCell id="z0PlqGzmoasyXMZHz6hP-1" value="Yes" style="edgeLabel;html=1;align=center;verticalAlign=middle;resizable=0;points=[];" vertex="1" connectable="0" parent="z0PlqGzmoasyXMZHz6hP-0">
          <mxGeometry x="-0.2299" y="2" relative="1" as="geometry">
            <mxPoint as="offset" />
          </mxGeometry>
        </mxCell>
        <mxCell id="z0PlqGzmoasyXMZHz6hP-11" value="" style="edgeStyle=orthogonalEdgeStyle;rounded=1;orthogonalLoop=1;jettySize=auto;html=1;strokeWidth=2;strokeColor=#990000;endArrow=classic;endFill=1;exitX=0.083;exitY=0.69;exitDx=0;exitDy=0;exitPerimeter=0;entryX=0;entryY=0.5;entryDx=0;entryDy=0;" edge="1" parent="ZQq9O-YeE_ZEWJ72eeBV-1" target="ViPK4aO7A15Pc71pLkyV-11">
          <mxGeometry relative="1" as="geometry">
            <mxPoint x="80" y="955" as="sourcePoint" />
            <mxPoint x="30" y="760" as="targetPoint" />
            <Array as="points">
              <mxPoint x="80" y="755" />
            </Array>
          </mxGeometry>
        </mxCell>
        <mxCell id="z0PlqGzmoasyXMZHz6hP-12" value="&lt;b&gt;Select?&lt;/b&gt;" style="rhombus;whiteSpace=wrap;html=1;rounded=0;shadow=0;glass=0;labelBackgroundColor=none;sketch=0;fontSize=10;fontColor=#000000;fillColor=#FFFBEB;gradientColor=#FFEE96;gradientDirection=north;" vertex="1" parent="ZQq9O-YeE_ZEWJ72eeBV-1">
          <mxGeometry x="525" y="810" width="70" height="70" as="geometry" />
        </mxCell>
        <mxCell id="z0PlqGzmoasyXMZHz6hP-13" value="" style="edgeStyle=elbowEdgeStyle;elbow=horizontal;strokeColor=#990000;strokeWidth=2;" edge="1" parent="ZQq9O-YeE_ZEWJ72eeBV-1" source="ViPK4aO7A15Pc71pLkyV-20" target="z0PlqGzmoasyXMZHz6hP-12">
          <mxGeometry width="100" height="100" relative="1" as="geometry">
            <mxPoint x="475" y="820" as="sourcePoint" />
            <mxPoint x="525" y="820" as="targetPoint" />
            <Array as="points">
              <mxPoint x="515" y="845" />
            </Array>
          </mxGeometry>
        </mxCell>
        <mxCell id="z0PlqGzmoasyXMZHz6hP-14" value="&amp;nbsp;No&amp;nbsp;" style="edgeLabel;html=1;align=center;verticalAlign=middle;resizable=0;points=[];" vertex="1" connectable="0" parent="z0PlqGzmoasyXMZHz6hP-13">
          <mxGeometry x="-0.2299" y="2" relative="1" as="geometry">
            <mxPoint as="offset" />
          </mxGeometry>
        </mxCell>
        <mxCell id="z0PlqGzmoasyXMZHz6hP-15" value="" style="edgeStyle=elbowEdgeStyle;elbow=horizontal;strokeColor=#990000;strokeWidth=2;" edge="1" parent="ZQq9O-YeE_ZEWJ72eeBV-1" source="z0PlqGzmoasyXMZHz6hP-12" target="z0PlqGzmoasyXMZHz6hP-18">
          <mxGeometry width="100" height="100" relative="1" as="geometry">
            <mxPoint x="559.66" y="915" as="sourcePoint" />
            <mxPoint x="625" y="920" as="targetPoint" />
            <Array as="points">
              <mxPoint x="560" y="900" />
            </Array>
          </mxGeometry>
        </mxCell>
        <mxCell id="z0PlqGzmoasyXMZHz6hP-16" value="Yes" style="edgeLabel;html=1;align=center;verticalAlign=middle;resizable=0;points=[];" vertex="1" connectable="0" parent="z0PlqGzmoasyXMZHz6hP-15">
          <mxGeometry x="-0.2299" y="2" relative="1" as="geometry">
            <mxPoint as="offset" />
          </mxGeometry>
        </mxCell>
        <mxCell id="z0PlqGzmoasyXMZHz6hP-18" value="Go to Judge page" style="rounded=1;whiteSpace=wrap;html=1;shadow=0;glass=0;labelBackgroundColor=none;sketch=0;fontSize=10;fillColor=#cdeb8b;gradientDirection=north;strokeColor=#36393d;fontStyle=1" vertex="1" parent="ZQq9O-YeE_ZEWJ72eeBV-1">
          <mxGeometry x="510" y="930" width="100" height="50" as="geometry" />
        </mxCell>
        <mxCell id="z0PlqGzmoasyXMZHz6hP-19" value="" style="edgeStyle=elbowEdgeStyle;elbow=horizontal;strokeColor=#990000;strokeWidth=2;" edge="1" parent="ZQq9O-YeE_ZEWJ72eeBV-1" source="z0PlqGzmoasyXMZHz6hP-12" target="ZQq9O-YeE_ZEWJ72eeBV-10">
          <mxGeometry width="100" height="100" relative="1" as="geometry">
            <mxPoint x="595" y="844.66" as="sourcePoint" />
            <mxPoint x="645" y="844.66" as="targetPoint" />
            <Array as="points">
              <mxPoint x="635" y="844.66" />
            </Array>
          </mxGeometry>
        </mxCell>
        <mxCell id="z0PlqGzmoasyXMZHz6hP-20" value="&amp;nbsp;No&amp;nbsp;" style="edgeLabel;html=1;align=center;verticalAlign=middle;resizable=0;points=[];" vertex="1" connectable="0" parent="z0PlqGzmoasyXMZHz6hP-19">
          <mxGeometry x="-0.2299" y="2" relative="1" as="geometry">
            <mxPoint as="offset" />
          </mxGeometry>
        </mxCell>
        <mxCell id="z0PlqGzmoasyXMZHz6hP-22" value="Pilot List" style="strokeWidth=2;html=1;shape=mxgraph.flowchart.sequential_data;whiteSpace=wrap;fillColor=#647687;fontStyle=1;strokeColor=#314354;fontColor=#ffffff;" vertex="1" parent="ZQq9O-YeE_ZEWJ72eeBV-1">
          <mxGeometry x="210" y="640" width="60" height="60" as="geometry" />
        </mxCell>
        <mxCell id="z0PlqGzmoasyXMZHz6hP-23" value="" style="edgeStyle=none;orthogonalLoop=1;jettySize=auto;html=1;rounded=1;entryX=1;entryY=0.5;entryDx=0;entryDy=0;entryPerimeter=0;exitX=0;exitY=0.25;exitDx=0;exitDy=0;strokeWidth=2;strokeColor=#990000;" edge="1" parent="ZQq9O-YeE_ZEWJ72eeBV-1" source="ZQq9O-YeE_ZEWJ72eeBV-11" target="z0PlqGzmoasyXMZHz6hP-22">
          <mxGeometry width="80" relative="1" as="geometry">
            <mxPoint x="270" y="600" as="sourcePoint" />
            <mxPoint x="340" y="580" as="targetPoint" />
            <Array as="points" />
          </mxGeometry>
        </mxCell>
        <mxCell id="z0PlqGzmoasyXMZHz6hP-24" value="Active Round" style="strokeWidth=2;html=1;shape=mxgraph.flowchart.stored_data;whiteSpace=wrap;fillColor=#647687;fontColor=#ffffff;strokeColor=#314354;fontStyle=1" vertex="1" parent="ZQq9O-YeE_ZEWJ72eeBV-1">
          <mxGeometry x="350" y="530" width="100" height="40" as="geometry" />
        </mxCell>
        <mxCell id="z0PlqGzmoasyXMZHz6hP-25" value="" style="edgeStyle=elbowEdgeStyle;elbow=vertical;strokeColor=#990000;strokeWidth=2;" edge="1" parent="ZQq9O-YeE_ZEWJ72eeBV-1" source="z0PlqGzmoasyXMZHz6hP-24" target="ZQq9O-YeE_ZEWJ72eeBV-11">
          <mxGeometry width="100" height="100" relative="1" as="geometry">
            <mxPoint x="399.58000000000004" y="640" as="sourcePoint" />
            <mxPoint x="399.58000000000004" y="690" as="targetPoint" />
          </mxGeometry>
        </mxCell>
      </root>
    </mxGraphModel>
  </diagram>
  <diagram name="Judge Page" id="9RNz2DQesdFxY3jW0Kpk">
    <mxGraphModel dx="696" dy="521" grid="1" gridSize="10" guides="1" tooltips="1" connect="1" arrows="1" fold="1" page="1" pageScale="1" pageWidth="827" pageHeight="1169" math="0" shadow="0">
      <root>
        <mxCell id="-VL6d2n5_1ewwq-sZDV1-0" />
        <mxCell id="-VL6d2n5_1ewwq-sZDV1-1" parent="-VL6d2n5_1ewwq-sZDV1-0" />
        <mxCell id="-VL6d2n5_1ewwq-sZDV1-2" value="&lt;b&gt;Is there &lt;br&gt;a comp?&lt;/b&gt;" style="rhombus;whiteSpace=wrap;html=1;rounded=0;shadow=0;glass=0;labelBackgroundColor=none;sketch=0;fontSize=10;fontColor=#000000;fillColor=#FFFBEB;gradientColor=#FFEE96;gradientDirection=north;" vertex="1" parent="-VL6d2n5_1ewwq-sZDV1-1">
          <mxGeometry x="365" y="120" width="70" height="70" as="geometry" />
        </mxCell>
        <mxCell id="-VL6d2n5_1ewwq-sZDV1-3" value="" style="edgeStyle=none;noEdgeStyle=1;strokeColor=#990000;strokeWidth=2;exitX=0.5;exitY=1;exitDx=0;exitDy=0;entryX=0.5;entryY=0;entryDx=0;entryDy=0;" edge="1" parent="-VL6d2n5_1ewwq-sZDV1-1" source="-VL6d2n5_1ewwq-sZDV1-6" target="-VL6d2n5_1ewwq-sZDV1-2">
          <mxGeometry width="100" height="100" relative="1" as="geometry">
            <mxPoint x="430" y="130" as="sourcePoint" />
            <mxPoint x="430" y="160" as="targetPoint" />
          </mxGeometry>
        </mxCell>
        <mxCell id="-VL6d2n5_1ewwq-sZDV1-4" value="" style="edgeStyle=elbowEdgeStyle;elbow=horizontal;strokeColor=#990000;strokeWidth=2;exitX=0.5;exitY=1;exitDx=0;exitDy=0;entryX=0.5;entryY=0;entryDx=0;entryDy=0;" edge="1" parent="-VL6d2n5_1ewwq-sZDV1-1" source="-VL6d2n5_1ewwq-sZDV1-2" target="-VL6d2n5_1ewwq-sZDV1-12">
          <mxGeometry width="100" height="100" relative="1" as="geometry">
            <mxPoint x="430" y="380" as="sourcePoint" />
            <mxPoint x="400" y="240" as="targetPoint" />
          </mxGeometry>
        </mxCell>
        <mxCell id="-VL6d2n5_1ewwq-sZDV1-5" value="Yes" style="edgeLabel;html=1;align=center;verticalAlign=middle;resizable=0;points=[];fontSize=10;fontColor=#000000;" vertex="1" connectable="0" parent="-VL6d2n5_1ewwq-sZDV1-4">
          <mxGeometry x="-0.1193" y="-1" relative="1" as="geometry">
            <mxPoint as="offset" />
          </mxGeometry>
        </mxCell>
        <mxCell id="-VL6d2n5_1ewwq-sZDV1-6" value="Judge Page&lt;hr&gt;&lt;span style=&quot;font-weight: normal;&quot;&gt;/judge&lt;/span&gt;" style="rounded=1;whiteSpace=wrap;html=1;shadow=0;glass=0;labelBackgroundColor=none;sketch=0;fontSize=15;fillColor=#dae8fc;gradientDirection=north;strokeColor=#6c8ebf;fontStyle=1" vertex="1" parent="-VL6d2n5_1ewwq-sZDV1-1">
          <mxGeometry x="310" y="20" width="180" height="70" as="geometry" />
        </mxCell>
        <mxCell id="-VL6d2n5_1ewwq-sZDV1-7" value="Go to Root page" style="rounded=1;whiteSpace=wrap;html=1;shadow=0;glass=0;labelBackgroundColor=none;sketch=0;fontSize=10;fillColor=#cdeb8b;gradientDirection=north;strokeColor=#36393d;fontStyle=1" vertex="1" parent="-VL6d2n5_1ewwq-sZDV1-1">
          <mxGeometry x="560" y="140" width="120" height="30" as="geometry" />
        </mxCell>
        <mxCell id="-VL6d2n5_1ewwq-sZDV1-8" value="" style="edgeStyle=elbowEdgeStyle;elbow=horizontal;strokeColor=#990000;strokeWidth=2;exitX=1;exitY=0.5;exitDx=0;exitDy=0;" edge="1" parent="-VL6d2n5_1ewwq-sZDV1-1" source="-VL6d2n5_1ewwq-sZDV1-2" target="-VL6d2n5_1ewwq-sZDV1-7">
          <mxGeometry width="100" height="100" relative="1" as="geometry">
            <mxPoint x="460" y="140" as="sourcePoint" />
            <mxPoint x="595" y="195" as="targetPoint" />
          </mxGeometry>
        </mxCell>
        <mxCell id="-VL6d2n5_1ewwq-sZDV1-9" value="&amp;nbsp;No&amp;nbsp;" style="edgeLabel;html=1;align=center;verticalAlign=middle;resizable=0;points=[];" vertex="1" connectable="0" parent="-VL6d2n5_1ewwq-sZDV1-8">
          <mxGeometry x="-0.435" y="-1" relative="1" as="geometry">
            <mxPoint x="7" y="-1" as="offset" />
          </mxGeometry>
        </mxCell>
        <mxCell id="-VL6d2n5_1ewwq-sZDV1-10" value="Other Input:&lt;br&gt;&lt;span style=&quot;font-weight: normal;&quot;&gt;Home, Sync, Comp, Settings etc...&lt;/span&gt;" style="rounded=1;whiteSpace=wrap;html=1;shadow=0;glass=0;labelBackgroundColor=none;sketch=0;fontSize=10;fillColor=#cdeb8b;gradientDirection=north;strokeColor=#36393d;fontStyle=1" vertex="1" parent="-VL6d2n5_1ewwq-sZDV1-1">
          <mxGeometry x="640" y="750" width="100" height="50" as="geometry" />
        </mxCell>
        <mxCell id="-VL6d2n5_1ewwq-sZDV1-11" value="&lt;b style=&quot;font-size: 10px;&quot;&gt;Load pilot scores&lt;br&gt;Load Schedule&lt;br style=&quot;font-size: 10px;&quot;&gt;&lt;/b&gt;" style="shape=parallelogram;html=1;strokeWidth=2;perimeter=parallelogramPerimeter;whiteSpace=wrap;rounded=1;arcSize=12;size=0.23;fillColor=#FFCCFF;align=center;fontSize=10;" vertex="1" parent="-VL6d2n5_1ewwq-sZDV1-1">
          <mxGeometry x="330" y="570" width="140" height="60" as="geometry" />
        </mxCell>
        <mxCell id="-VL6d2n5_1ewwq-sZDV1-12" value="&lt;b style=&quot;font-size: 10px;&quot;&gt;Is there an &lt;br style=&quot;font-size: 10px;&quot;&gt;Active Round?&lt;/b&gt;" style="rhombus;whiteSpace=wrap;html=1;rounded=0;shadow=0;glass=0;labelBackgroundColor=none;sketch=0;fontSize=10;fontColor=#000000;fillColor=#FFFBEB;gradientColor=#FFEE96;gradientDirection=north;" vertex="1" parent="-VL6d2n5_1ewwq-sZDV1-1">
          <mxGeometry x="350" y="220" width="100" height="100" as="geometry" />
        </mxCell>
        <mxCell id="-VL6d2n5_1ewwq-sZDV1-13" value="" style="edgeStyle=elbowEdgeStyle;elbow=horizontal;strokeColor=#990000;strokeWidth=2;exitX=1;exitY=0.5;exitDx=0;exitDy=0;" edge="1" parent="-VL6d2n5_1ewwq-sZDV1-1" source="-VL6d2n5_1ewwq-sZDV1-12" target="-VL6d2n5_1ewwq-sZDV1-15">
          <mxGeometry width="100" height="100" relative="1" as="geometry">
            <mxPoint x="490" y="290" as="sourcePoint" />
            <mxPoint x="555" y="290" as="targetPoint" />
          </mxGeometry>
        </mxCell>
        <mxCell id="-VL6d2n5_1ewwq-sZDV1-14" value="&amp;nbsp;No&amp;nbsp;" style="edgeLabel;html=1;align=center;verticalAlign=middle;resizable=0;points=[];" vertex="1" connectable="0" parent="-VL6d2n5_1ewwq-sZDV1-13">
          <mxGeometry x="-0.435" y="-1" relative="1" as="geometry">
            <mxPoint x="10" y="-1" as="offset" />
          </mxGeometry>
        </mxCell>
        <mxCell id="-VL6d2n5_1ewwq-sZDV1-15" value="Go to Rounds page&lt;hr&gt;&lt;span style=&quot;font-weight: normal;&quot;&gt;Round is selected or created depending on scoring mode.&lt;br&gt;Flow will return to this page VIA the pilot select page&lt;br&gt;&lt;/span&gt;" style="rounded=1;whiteSpace=wrap;html=1;shadow=0;glass=0;labelBackgroundColor=none;sketch=0;fontSize=10;fillColor=#cdeb8b;gradientDirection=north;strokeColor=#36393d;fontStyle=1" vertex="1" parent="-VL6d2n5_1ewwq-sZDV1-1">
          <mxGeometry x="560" y="215" width="170" height="110" as="geometry" />
        </mxCell>
        <mxCell id="-VL6d2n5_1ewwq-sZDV1-16" value="" style="edgeStyle=elbowEdgeStyle;elbow=horizontal;strokeColor=#990000;strokeWidth=2;exitX=0.5;exitY=1;exitDx=0;exitDy=0;" edge="1" parent="-VL6d2n5_1ewwq-sZDV1-1" source="-VL6d2n5_1ewwq-sZDV1-12" target="fIW16NUK2dkEpJXuxaTy-0">
          <mxGeometry width="100" height="100" relative="1" as="geometry">
            <mxPoint x="399.5" y="370" as="sourcePoint" />
            <mxPoint x="400" y="350" as="targetPoint" />
          </mxGeometry>
        </mxCell>
        <mxCell id="-VL6d2n5_1ewwq-sZDV1-17" value="Yes" style="edgeLabel;html=1;align=center;verticalAlign=middle;resizable=0;points=[];fontSize=10;fontColor=#000000;" vertex="1" connectable="0" parent="-VL6d2n5_1ewwq-sZDV1-16">
          <mxGeometry x="-0.1193" y="-1" relative="1" as="geometry">
            <mxPoint as="offset" />
          </mxGeometry>
        </mxCell>
        <mxCell id="-VL6d2n5_1ewwq-sZDV1-18" value="Wait For Input" style="strokeWidth=2;html=1;shape=mxgraph.flowchart.delay;whiteSpace=wrap;fillColor=#CDEB8B;fontStyle=1;fontSize=10;" vertex="1" parent="-VL6d2n5_1ewwq-sZDV1-1">
          <mxGeometry x="130" y="745" width="100" height="60" as="geometry" />
        </mxCell>
        <mxCell id="-VL6d2n5_1ewwq-sZDV1-19" value="" style="edgeStyle=elbowEdgeStyle;elbow=horizontal;strokeColor=#990000;strokeWidth=2;" edge="1" parent="-VL6d2n5_1ewwq-sZDV1-1" source="-VL6d2n5_1ewwq-sZDV1-21" target="-VL6d2n5_1ewwq-sZDV1-18">
          <mxGeometry width="100" height="100" relative="1" as="geometry">
            <mxPoint x="305" y="825" as="sourcePoint" />
            <mxPoint x="375" y="825" as="targetPoint" />
          </mxGeometry>
        </mxCell>
        <mxCell id="-VL6d2n5_1ewwq-sZDV1-20" value="&lt;b&gt;Next?&lt;/b&gt;" style="rhombus;whiteSpace=wrap;html=1;rounded=0;shadow=0;glass=0;labelBackgroundColor=none;sketch=0;fontSize=10;fontColor=#000000;fillColor=#FFFBEB;gradientColor=#FFEE96;gradientDirection=north;" vertex="1" parent="-VL6d2n5_1ewwq-sZDV1-1">
          <mxGeometry x="285" y="740" width="70" height="70" as="geometry" />
        </mxCell>
        <mxCell id="-VL6d2n5_1ewwq-sZDV1-21" value="Display Scorecard" style="rounded=1;whiteSpace=wrap;html=1;absoluteArcSize=1;arcSize=14;strokeWidth=2;fillColor=#FFCCFF;fontStyle=1;fontSize=10;" vertex="1" parent="-VL6d2n5_1ewwq-sZDV1-1">
          <mxGeometry x="130" y="640" width="100" height="50" as="geometry" />
        </mxCell>
        <mxCell id="-VL6d2n5_1ewwq-sZDV1-22" value="" style="edgeStyle=elbowEdgeStyle;elbow=horizontal;strokeColor=#990000;strokeWidth=2;exitX=0;exitY=0.5;exitDx=0;exitDy=0;entryX=0.5;entryY=0;entryDx=0;entryDy=0;exitPerimeter=0;" edge="1" parent="-VL6d2n5_1ewwq-sZDV1-1" source="-VL6d2n5_1ewwq-sZDV1-44" target="-VL6d2n5_1ewwq-sZDV1-21">
          <mxGeometry width="100" height="100" relative="1" as="geometry">
            <mxPoint x="339.54999999999995" y="687.5" as="sourcePoint" />
            <mxPoint x="220" y="715" as="targetPoint" />
            <Array as="points">
              <mxPoint x="180" y="688" />
            </Array>
          </mxGeometry>
        </mxCell>
        <mxCell id="-VL6d2n5_1ewwq-sZDV1-23" value="Select next figure" style="rounded=1;whiteSpace=wrap;html=1;absoluteArcSize=1;arcSize=14;strokeWidth=2;fillColor=#FFCCFF;fontStyle=1;fontSize=10;" vertex="1" parent="-VL6d2n5_1ewwq-sZDV1-1">
          <mxGeometry x="280" y="870" width="80" height="50" as="geometry" />
        </mxCell>
        <mxCell id="-VL6d2n5_1ewwq-sZDV1-24" value="" style="edgeStyle=elbowEdgeStyle;elbow=horizontal;strokeColor=#990000;strokeWidth=2;" edge="1" parent="-VL6d2n5_1ewwq-sZDV1-1" source="-VL6d2n5_1ewwq-sZDV1-18" target="-VL6d2n5_1ewwq-sZDV1-20">
          <mxGeometry width="100" height="100" relative="1" as="geometry">
            <mxPoint x="180" y="810" as="sourcePoint" />
            <mxPoint x="180" y="840" as="targetPoint" />
            <Array as="points" />
          </mxGeometry>
        </mxCell>
        <mxCell id="-VL6d2n5_1ewwq-sZDV1-25" value="" style="edgeStyle=elbowEdgeStyle;elbow=horizontal;strokeColor=#990000;strokeWidth=2;" edge="1" parent="-VL6d2n5_1ewwq-sZDV1-1" source="-VL6d2n5_1ewwq-sZDV1-20" target="-VL6d2n5_1ewwq-sZDV1-23">
          <mxGeometry width="100" height="100" relative="1" as="geometry">
            <mxPoint x="335" y="710" as="sourcePoint" />
            <mxPoint x="335" y="740" as="targetPoint" />
            <Array as="points" />
          </mxGeometry>
        </mxCell>
        <mxCell id="-VL6d2n5_1ewwq-sZDV1-26" value="Yes" style="edgeLabel;html=1;align=center;verticalAlign=middle;resizable=0;points=[];" vertex="1" connectable="0" parent="-VL6d2n5_1ewwq-sZDV1-25">
          <mxGeometry x="-0.2299" y="2" relative="1" as="geometry">
            <mxPoint as="offset" />
          </mxGeometry>
        </mxCell>
        <mxCell id="-VL6d2n5_1ewwq-sZDV1-27" value="" style="edgeStyle=elbowEdgeStyle;elbow=horizontal;strokeColor=#990000;strokeWidth=2;entryX=0;entryY=0.5;entryDx=0;entryDy=0;endArrow=none;endFill=0;exitX=0;exitY=0.5;exitDx=0;exitDy=0;" edge="1" parent="-VL6d2n5_1ewwq-sZDV1-1" source="-VL6d2n5_1ewwq-sZDV1-23" target="-VL6d2n5_1ewwq-sZDV1-21">
          <mxGeometry width="100" height="100" relative="1" as="geometry">
            <mxPoint x="29.99586206896558" y="1000" as="sourcePoint" />
            <mxPoint x="29.99586206896558" y="780" as="targetPoint" />
            <Array as="points">
              <mxPoint x="80" y="870" />
            </Array>
          </mxGeometry>
        </mxCell>
        <mxCell id="-VL6d2n5_1ewwq-sZDV1-28" value="" style="edgeStyle=elbowEdgeStyle;elbow=horizontal;strokeColor=#990000;strokeWidth=2;" edge="1" parent="-VL6d2n5_1ewwq-sZDV1-1" source="-VL6d2n5_1ewwq-sZDV1-20" target="-VL6d2n5_1ewwq-sZDV1-30">
          <mxGeometry width="100" height="100" relative="1" as="geometry">
            <mxPoint x="395" y="780" as="sourcePoint" />
            <mxPoint x="395" y="830" as="targetPoint" />
            <Array as="points">
              <mxPoint x="395" y="775" />
            </Array>
          </mxGeometry>
        </mxCell>
        <mxCell id="-VL6d2n5_1ewwq-sZDV1-29" value="&amp;nbsp;No&amp;nbsp;" style="edgeLabel;html=1;align=center;verticalAlign=middle;resizable=0;points=[];" vertex="1" connectable="0" parent="-VL6d2n5_1ewwq-sZDV1-28">
          <mxGeometry x="-0.2299" y="2" relative="1" as="geometry">
            <mxPoint as="offset" />
          </mxGeometry>
        </mxCell>
        <mxCell id="-VL6d2n5_1ewwq-sZDV1-30" value="&lt;b&gt;Previous?&lt;/b&gt;" style="rhombus;whiteSpace=wrap;html=1;rounded=0;shadow=0;glass=0;labelBackgroundColor=none;sketch=0;fontSize=10;fontColor=#000000;fillColor=#FFFBEB;gradientColor=#FFEE96;gradientDirection=north;" vertex="1" parent="-VL6d2n5_1ewwq-sZDV1-1">
          <mxGeometry x="405" y="740" width="70" height="70" as="geometry" />
        </mxCell>
        <mxCell id="-VL6d2n5_1ewwq-sZDV1-31" value="" style="edgeStyle=orthogonalEdgeStyle;rounded=1;orthogonalLoop=1;jettySize=auto;html=1;strokeWidth=2;strokeColor=#990000;endArrow=none;endFill=0;" edge="1" parent="-VL6d2n5_1ewwq-sZDV1-1" source="-VL6d2n5_1ewwq-sZDV1-32">
          <mxGeometry relative="1" as="geometry">
            <mxPoint x="80" y="955" as="targetPoint" />
            <Array as="points">
              <mxPoint x="440" y="960" />
              <mxPoint x="80" y="960" />
            </Array>
          </mxGeometry>
        </mxCell>
        <mxCell id="-VL6d2n5_1ewwq-sZDV1-32" value="Select Previous&lt;br&gt;Figure" style="rounded=1;whiteSpace=wrap;html=1;absoluteArcSize=1;arcSize=14;strokeWidth=2;fillColor=#FFCCFF;fontStyle=1;fontSize=10;" vertex="1" parent="-VL6d2n5_1ewwq-sZDV1-1">
          <mxGeometry x="390" y="870" width="100" height="50" as="geometry" />
        </mxCell>
        <mxCell id="-VL6d2n5_1ewwq-sZDV1-33" value="" style="edgeStyle=elbowEdgeStyle;elbow=horizontal;strokeColor=#990000;strokeWidth=2;" edge="1" parent="-VL6d2n5_1ewwq-sZDV1-1" source="-VL6d2n5_1ewwq-sZDV1-30" target="-VL6d2n5_1ewwq-sZDV1-32">
          <mxGeometry width="100" height="100" relative="1" as="geometry">
            <mxPoint x="515" y="870" as="sourcePoint" />
            <mxPoint x="515" y="920" as="targetPoint" />
            <Array as="points" />
          </mxGeometry>
        </mxCell>
        <mxCell id="-VL6d2n5_1ewwq-sZDV1-34" value="Yes" style="edgeLabel;html=1;align=center;verticalAlign=middle;resizable=0;points=[];" vertex="1" connectable="0" parent="-VL6d2n5_1ewwq-sZDV1-33">
          <mxGeometry x="-0.2299" y="2" relative="1" as="geometry">
            <mxPoint as="offset" />
          </mxGeometry>
        </mxCell>
        <mxCell id="-VL6d2n5_1ewwq-sZDV1-35" value="" style="edgeStyle=orthogonalEdgeStyle;rounded=1;orthogonalLoop=1;jettySize=auto;html=1;strokeWidth=2;strokeColor=#990000;endArrow=classic;endFill=1;exitX=0.083;exitY=0.69;exitDx=0;exitDy=0;exitPerimeter=0;entryX=0;entryY=0.5;entryDx=0;entryDy=0;" edge="1" parent="-VL6d2n5_1ewwq-sZDV1-1" target="-VL6d2n5_1ewwq-sZDV1-21">
          <mxGeometry relative="1" as="geometry">
            <mxPoint x="80" y="955" as="sourcePoint" />
            <mxPoint x="30" y="760" as="targetPoint" />
            <Array as="points">
              <mxPoint x="80" y="665" />
            </Array>
          </mxGeometry>
        </mxCell>
        <mxCell id="-VL6d2n5_1ewwq-sZDV1-36" value="&lt;b&gt;Select?&lt;/b&gt;" style="rhombus;whiteSpace=wrap;html=1;rounded=0;shadow=0;glass=0;labelBackgroundColor=none;sketch=0;fontSize=10;fontColor=#000000;fillColor=#FFFBEB;gradientColor=#FFEE96;gradientDirection=north;" vertex="1" parent="-VL6d2n5_1ewwq-sZDV1-1">
          <mxGeometry x="525" y="740" width="70" height="70" as="geometry" />
        </mxCell>
        <mxCell id="-VL6d2n5_1ewwq-sZDV1-37" value="" style="edgeStyle=elbowEdgeStyle;elbow=horizontal;strokeColor=#990000;strokeWidth=2;" edge="1" parent="-VL6d2n5_1ewwq-sZDV1-1" source="-VL6d2n5_1ewwq-sZDV1-30" target="-VL6d2n5_1ewwq-sZDV1-36">
          <mxGeometry width="100" height="100" relative="1" as="geometry">
            <mxPoint x="475" y="750" as="sourcePoint" />
            <mxPoint x="525" y="750" as="targetPoint" />
            <Array as="points">
              <mxPoint x="515" y="775" />
            </Array>
          </mxGeometry>
        </mxCell>
        <mxCell id="-VL6d2n5_1ewwq-sZDV1-38" value="&amp;nbsp;No&amp;nbsp;" style="edgeLabel;html=1;align=center;verticalAlign=middle;resizable=0;points=[];" vertex="1" connectable="0" parent="-VL6d2n5_1ewwq-sZDV1-37">
          <mxGeometry x="-0.2299" y="2" relative="1" as="geometry">
            <mxPoint as="offset" />
          </mxGeometry>
        </mxCell>
        <mxCell id="-VL6d2n5_1ewwq-sZDV1-42" value="" style="edgeStyle=elbowEdgeStyle;elbow=horizontal;strokeColor=#990000;strokeWidth=2;" edge="1" parent="-VL6d2n5_1ewwq-sZDV1-1" source="-VL6d2n5_1ewwq-sZDV1-36" target="-VL6d2n5_1ewwq-sZDV1-10">
          <mxGeometry width="100" height="100" relative="1" as="geometry">
            <mxPoint x="595" y="774.66" as="sourcePoint" />
            <mxPoint x="645" y="774.66" as="targetPoint" />
            <Array as="points">
              <mxPoint x="635" y="774.66" />
            </Array>
          </mxGeometry>
        </mxCell>
        <mxCell id="-VL6d2n5_1ewwq-sZDV1-43" value="&amp;nbsp;No&amp;nbsp;" style="edgeLabel;html=1;align=center;verticalAlign=middle;resizable=0;points=[];" vertex="1" connectable="0" parent="-VL6d2n5_1ewwq-sZDV1-42">
          <mxGeometry x="-0.2299" y="2" relative="1" as="geometry">
            <mxPoint as="offset" />
          </mxGeometry>
        </mxCell>
        <mxCell id="-VL6d2n5_1ewwq-sZDV1-44" value="Pilot Scores&lt;br&gt;Schedule" style="strokeWidth=2;html=1;shape=mxgraph.flowchart.sequential_data;whiteSpace=wrap;fillColor=#647687;fontStyle=1;strokeColor=#314354;fontColor=#ffffff;" vertex="1" parent="-VL6d2n5_1ewwq-sZDV1-1">
          <mxGeometry x="230" y="550" width="80" height="80" as="geometry" />
        </mxCell>
        <mxCell id="-VL6d2n5_1ewwq-sZDV1-45" value="" style="edgeStyle=none;orthogonalLoop=1;jettySize=auto;html=1;rounded=1;entryX=1;entryY=0.5;entryDx=0;entryDy=0;entryPerimeter=0;exitX=0;exitY=0.25;exitDx=0;exitDy=0;strokeWidth=2;strokeColor=#990000;" edge="1" parent="-VL6d2n5_1ewwq-sZDV1-1" source="-VL6d2n5_1ewwq-sZDV1-11" target="-VL6d2n5_1ewwq-sZDV1-44">
          <mxGeometry width="80" relative="1" as="geometry">
            <mxPoint x="270" y="600" as="sourcePoint" />
            <mxPoint x="340" y="580" as="targetPoint" />
            <Array as="points" />
          </mxGeometry>
        </mxCell>
        <mxCell id="fIW16NUK2dkEpJXuxaTy-0" value="&lt;b&gt;Is there a pilot Selected&lt;/b&gt;" style="rhombus;whiteSpace=wrap;html=1;rounded=0;shadow=0;glass=0;labelBackgroundColor=none;sketch=0;fontSize=10;fontColor=#000000;fillColor=#FFFBEB;gradientColor=#FFEE96;gradientDirection=north;" vertex="1" parent="-VL6d2n5_1ewwq-sZDV1-1">
          <mxGeometry x="350" y="350" width="100" height="100" as="geometry" />
        </mxCell>
        <mxCell id="fIW16NUK2dkEpJXuxaTy-1" value="" style="edgeStyle=elbowEdgeStyle;elbow=horizontal;strokeColor=#990000;strokeWidth=2;exitX=1;exitY=0.5;exitDx=0;exitDy=0;" edge="1" parent="-VL6d2n5_1ewwq-sZDV1-1" source="fIW16NUK2dkEpJXuxaTy-0" target="-VL6d2n5_1ewwq-sZDV1-15">
          <mxGeometry width="100" height="100" relative="1" as="geometry">
            <mxPoint x="510" y="459.5" as="sourcePoint" />
            <mxPoint x="580" y="459.5" as="targetPoint" />
          </mxGeometry>
        </mxCell>
        <mxCell id="fIW16NUK2dkEpJXuxaTy-2" value="&amp;nbsp;No&amp;nbsp;" style="edgeLabel;html=1;align=center;verticalAlign=middle;resizable=0;points=[];" vertex="1" connectable="0" parent="fIW16NUK2dkEpJXuxaTy-1">
          <mxGeometry x="-0.435" y="-1" relative="1" as="geometry">
            <mxPoint x="10" y="-1" as="offset" />
          </mxGeometry>
        </mxCell>
        <mxCell id="ZGomtKbrQBa3CeNVV653-3" value="" style="edgeStyle=elbowEdgeStyle;elbow=horizontal;strokeColor=#990000;strokeWidth=2;exitX=0.5;exitY=1;exitDx=0;exitDy=0;entryX=0.04;entryY=0.071;entryDx=0;entryDy=0;entryPerimeter=0;" edge="1" parent="-VL6d2n5_1ewwq-sZDV1-1" source="fIW16NUK2dkEpJXuxaTy-0" target="ZGomtKbrQBa3CeNVV653-1">
          <mxGeometry width="100" height="100" relative="1" as="geometry">
            <mxPoint x="404" y="470" as="sourcePoint" />
            <mxPoint x="404" y="500" as="targetPoint" />
          </mxGeometry>
        </mxCell>
        <mxCell id="ZGomtKbrQBa3CeNVV653-5" value="" style="edgeStyle=elbowEdgeStyle;elbow=horizontal;strokeColor=#990000;strokeWidth=2;exitX=0.954;exitY=0.997;exitDx=0;exitDy=0;exitPerimeter=0;entryX=0.5;entryY=0;entryDx=0;entryDy=0;" edge="1" parent="-VL6d2n5_1ewwq-sZDV1-1" source="ZGomtKbrQBa3CeNVV653-0" target="-VL6d2n5_1ewwq-sZDV1-11">
          <mxGeometry width="100" height="100" relative="1" as="geometry">
            <mxPoint x="509" y="550" as="sourcePoint" />
            <mxPoint x="400" y="540" as="targetPoint" />
          </mxGeometry>
        </mxCell>
        <mxCell id="ZGomtKbrQBa3CeNVV653-9" value="" style="group" vertex="1" connectable="0" parent="-VL6d2n5_1ewwq-sZDV1-1">
          <mxGeometry x="304" y="480" width="192" height="40" as="geometry" />
        </mxCell>
        <mxCell id="ZGomtKbrQBa3CeNVV653-0" value="Active Round" style="strokeWidth=2;html=1;shape=mxgraph.flowchart.stored_data;whiteSpace=wrap;fillColor=#647687;fontColor=#ffffff;strokeColor=#314354;fontStyle=1" vertex="1" parent="ZGomtKbrQBa3CeNVV653-9">
          <mxGeometry width="100" height="40" as="geometry" />
        </mxCell>
        <mxCell id="ZGomtKbrQBa3CeNVV653-1" value="Active Pilot" style="strokeWidth=2;html=1;shape=mxgraph.flowchart.stored_data;whiteSpace=wrap;fillColor=#647687;fontColor=#ffffff;strokeColor=#314354;fontStyle=1" vertex="1" parent="ZGomtKbrQBa3CeNVV653-9">
          <mxGeometry x="92" width="100" height="40" as="geometry" />
        </mxCell>
      </root>
    </mxGraphModel>
  </diagram>
</mxfile>
